<svg xmlns="http://www.w3.org/2000/svg" width="971" height="959" xmlns:v="https://vecta.io/nano"><path d="M155 391h303v353c-26.665-2.319-26.665-2.319-36.562-4.375l-3.279-.655c-21.607-4.418-21.607-4.418-24.158-6.97-.097-1.434-.124-2.872-.123-4.309l-.006-2.835.009-3.151-.003-3.319.009-11.102v-7.922l.008-17.102.012-24.726.018-40.113.021-38.976.001-2.45.006-18.966L394 464l-173 1c-1.688 13.325-1.688 13.325-2.301 26.602l-.017 2.429.005 7.595.007 2.655c.054 13.769.632 27.177 3.306 40.72l.586 3.046C230.349 587.3 246.388 625.014 272 656l1.319 1.606C282.188 668.378 291.244 679.065 302 688l2.785 2.445c24.648 21.564 53.75 37.727 84.876 47.798l4.42 1.459c23.275 7.843 47.681 10.531 72.106 10.548l2.704.002c13.899-.017 27.434-.553 41.108-3.252l2.799-.552c6.446-1.311 12.828-2.821 19.201-4.448l2.223-.553c36.711-9.289 71.672-29.44 99.301-55.158 2.093-1.935 4.227-3.775 6.414-5.602C681.831 643.988 707.038 586.255 714 532l.267-2.045c.668-5.495.879-10.892.866-16.424l.003-2.664-.005-5.557.006-8.326-.004-5.453.006-2.432c-.033-8.416-.642-16.65-1.139-25.099H541v269c-25.485 6.951-25.485 6.951-34.812 8.313l-2.881.471c-8.818 1.36-17.291 1.686-26.307 2.217V391h303v113c-4.025-2.012-7.032-4.441-10.375-7.375l-1.835-1.589-7.761-6.757-5.716-4.966-1.781-1.566c-2.503-2.169-4.356-3.688-7.532-4.747l.108 2.329c2.204 49.39-3.959 97.793-26.108 142.671l-1.324 2.701C711.034 638.135 703.711 650.804 695 663l-1.222 1.72c-8.031 11.222-17.078 21.563-26.466 31.655l-1.834 1.981c-4.251 4.522-8.757 8.62-13.478 12.644l-2.992 2.633C609.192 748.054 560.123 770.524 508 778l-3.609.537c-12.303 1.711-24.549 1.82-36.953 1.775l-3.225-.007c-15.277-.05-30.178-.351-45.212-3.306l-3.141-.586C391.219 771.729 367.498 764.109 345 753l-2.6-1.273c-29.421-14.533-59.56-35.363-80.76-60.782a96.91 96.91 0 0 0-3.531-3.953c-47.122-50.089-69.773-119.309-69.234-187.117l.027-6.691L189 477l-18.289 15.691-1.723 1.482-3.344 2.883C157.567 504 157.567 504 155 504V391z" fill="#c81e23"/><path d="M470 0h1l15.966 131.068 2.633 22.138 2.574 21.649 1.522 12.801 1.411 11.89.518 4.349.702 5.925.397 3.344C497 216 497 216 497 220l12 1 1.102-3.453c2.512-7.522 5.42-14.9 8.273-22.297l.954-2.477 18.921-48.335 1.404-3.557 3.987-10.072 1.201-3.044c1.87-4.702 3.795-9.288 6.158-13.764.915 3.001 1.017 5.213.551 8.306l-.378 2.587-.436 2.813-.443 2.982-1.477 9.768-1.013 6.793-2.688 17.9-4.294 28.619-1.509 9.989-.92 6.148-.43 2.795c-.715 4.828-1.111 9.419-.963 14.3l9 2 19.625-27.687c4.261-6.278 8.624-12.453 13.146-18.546 4.415-5.969 8.653-12.058 12.895-18.15l11.897-16.678a699.96 699.96 0 0 0 13.063-18.625 543.06 543.06 0 0 1 13.143-18.544c5.666-7.662 11.075-15.504 16.524-23.321l22.176-31.17L680 40l2 1-1.107 2.578-41.19 96.827-24.898 58.627-1.422 3.335-1.4 3.284-12.42 29.224-.896 2.114L594 248c4.531 3.53 4.531 3.53 10 5 3.085-1.861 5.462-4.466 8-7l5.875-5.375 3.109-2.859L634 226l5-4.5 20-18 2.508-2.258 4.922-4.422 12.139-11.014 11.931-10.868 1.781-1.598c1.815-1.415 3.632-2.383 5.719-3.34-1.596 5.241-4.938 8.99-8.312 13.188-4.836 6.11-9.541 12.279-14.062 18.625-4.754 6.659-9.644 13.196-14.625 19.688-5.509 7.185-10.904 14.434-16.178 21.792L626 269c2.332 1.206 4.496 2.165 7 3 2.62-1.125 2.62-1.125 5.453-2.867l3.292-1.92 3.505-2.087 3.591-2.107L659 257l2.336-1.389 8.863-5.322 14.363-8.539 2.833-1.672 5.742-3.388L707 228.5l5.5-3.25 2.75-1.625 99.004-58.502 5.458-3.226 14.385-8.499 3.025-1.787 5.734-3.387 2.615-1.545 2.415-1.419c1.724-1.029 3.421-2.103 5.109-3.19L855 141l2 1c-6.613 6.175-13.3 12.143-20.352 17.82-2.621 2.157-5.14 4.393-7.648 6.68-3.396 3.096-6.862 6.052-10.437 8.938-4.774 3.861-9.296 7.937-13.812 12.094-3.562 3.198-7.276 6.183-11 9.188-2.831 2.348-5.544 4.79-8.25 7.281-4.447 4.094-9.047 7.924-13.75 11.719-2.831 2.348-5.544 4.79-8.25 7.281-4.447 4.094-9.047 7.924-13.75 11.719-2.831 2.348-5.544 4.79-8.25 7.281-4.447 4.094-9.047 7.924-13.75 11.719-2.831 2.348-5.544 4.79-8.25 7.281-4.47 4.114-9.09 7.971-13.816 11.785-2.631 2.171-5.163 4.417-7.684 6.715-4.265 3.888-8.688 7.527-13.18 11.148-4.011 3.344-7.806 6.899-11.605 10.48C671 303 671 303 669 303c2.06 3.605 4.351 6.803 7 10 6.11-.656 11.587-2.914 17.297-5.059l3.399-1.261 9.152-3.408 15.442-5.729 3.957-1.466 47.458-17.213 2.945-1.056 5.612-2.006 12.544-4.67 2.24-.872 4.059-1.626c3.316-1.299 5.52-2.035 8.897-.635l-2.114 1.171-39.314 21.98-21.198 11.912-30.722 17.417-14.465 8.271-5.332 3.047L692 334v3c8.045-.639 15.912-1.948 23.849-3.382l4.13-.737 11.223-2.012 12.008-2.149 20.551-3.68 32.061-5.738 10.742-1.92 2.685-.48 29.457-5.27 72.904-13.03 20.589-3.68 12.53-2.235 5.706-1.022 7.667-1.367 2.231-.405c3.598-.631 7.013-1.043 10.667-.895-2.416 2.416-4.274 2.926-7.511 4.009l-3.528 1.189-3.863 1.283-4.008 1.347-8.556 2.866-20.267 6.806-4.513 1.519-36.442 12.544L830 338.5l-51.216 17.528-7.692 2.687-23.598 8.323-11.338 4.002-5.347 1.913c-16.914 6.128-16.914 6.128-25.809 4.047l-5.516-.672c-8.438-1.431-16.074-2.883-21.633-9.836-3.053-4.445-5.681-9.123-8.294-13.836-2.333-3.979-5.107-7.496-8.058-11.031l-1.604-1.934C637.442 313.008 610.812 292.193 580 276l-1.972-1.054C557.558 264.136 533.746 256.971 511 253l-2.784-.487c-26.818-4.44-55.467-4.302-82.216.487l-2.801.488C374.263 262.295 330.858 285.951 295 320l-1.619 1.532C285.082 329.441 277.836 337.806 271 347l-1.447 1.933-6.948 9.399-1.241 1.654c-1.427 1.992-1.427 1.992-2.426 4.282-2.025 3.968-3.581 6.283-7.911 7.716-3.82.509-7.568.692-11.414.704l-2.129.04c-16.217.229-30.228-4.294-45.238-9.959l-10.674-3.843-16.945-6.133-26.848-9.501-7.433-2.597-49.359-16.875-59.059-20.291-2.482-.871-4.452-1.567L0 296v-1c11.228.534 22.165 2.672 33.199 4.678l6.395 1.148 13.711 2.472 21.7 3.908 42.144 7.589 53.655 9.66 21.552 3.885 13.424 2.416 6.203 1.121c14.433 2.622 14.433 2.622 29.018 4.123l6-9-4.074-2.203-30.82-17.156-20.481-11.579-32.681-18.396-15.881-8.979-5.84-3.301-2.476-1.4L133 263c3.535-1.248 5.524-.749 9.001.529l3.044 1.1 3.311 1.235 3.483 1.27 9.395 3.458 9.816 3.599 18.092 6.65 23.225 8.541 15.392 5.668L264 308l7-7c-6.392-6.605-13.292-12.662-20.437-18.437-4.772-3.86-9.294-7.934-13.809-12.09-3.586-3.22-7.321-6.232-11.07-9.258-3.489-2.88-6.814-5.922-10.156-8.969-2.597-2.308-5.261-4.502-7.965-6.684-4.774-3.861-9.296-7.937-13.812-12.094-2.687-2.413-5.44-4.701-8.25-6.969-4.756-3.837-9.255-7.894-13.75-12.031-2.687-2.413-5.44-4.701-8.25-6.969-4.756-3.837-9.255-7.894-13.75-12.031-2.687-2.413-5.44-4.701-8.25-6.969-3.785-3.053-7.422-6.207-11-9.5-4.47-4.114-9.09-7.971-13.816-11.785-2.631-2.171-5.163-4.417-7.684-6.715-4.332-3.947-8.817-7.661-13.371-11.348-3.62-2.964-7.136-6.04-10.629-9.152l1-2 47.792 28.097 14.521 8.591 2.703 1.597L159 181l37.232 22.027L230 223l38.923 23.029 25.188 14.898 2.537 1.498 2.321 1.365c1.674.997 3.328 2.028 4.976 3.068 2.028 1.353 2.028 1.353 4.555 1.078 3.025-1.134 5.025-2.888 7.5-4.937-7.488-10.501-15.131-20.86-22.976-31.097l-15.016-20.09L267 197l-4.394-5.858-3.455-4.601-5.776-7.729-1.832-2.432-1.707-2.299-1.514-2.024c-1.455-2.266-2.397-4.534-3.322-7.058 4.819 3.417 9.127 6.99 13.238 11.23 2.378 2.389 4.917 4.561 7.469 6.762 2.762 2.419 5.467 4.897 8.168 7.383L290 205l5 4.5 2.5 2.25 10.008 9.008 4.922 4.422 10.586 9.621L332 243l2.328 2.102 2.047 1.711 1.711 1.457c2.953 1.127 5.039-.226 7.914-1.27l-1.107-2.578-41.19-96.827-19.022-44.841-4.431-10.408-11.773-27.5-4.057-9.407-2.699-6.19-1.563-3.636-1.35-3.1C258 40 258 40 259 37l21.764 30.532 11.799 16.531c4.463 6.137 8.801 12.346 13.063 18.625a540.5 540.5 0 0 0 13.146 18.546c4.415 5.969 8.653 12.058 12.895 18.15l11.897 16.678a699.96 699.96 0 0 1 13.063 18.625c4.256 6.27 8.612 12.438 13.128 18.522 5.169 6.987 10.117 14.128 15.083 21.259l1.659 2.316C388 219 388 219 389.138 221.184c1.147 2.283 1.147 2.283 3.862 4.816 2.738.126 2.738.126 5.673-.322l3.018-.359L404 225l-.655-3.771c-3.229-18.851-6.004-37.766-8.773-56.689l-2.085-14.134-1.616-10.997-.77-5.216-1.062-7.251-.321-2.133c-.616-4.302-.811-8.465-.717-12.808 2.417 2.417 3.08 4.442 4.293 7.641l1.386 3.624.741 1.959 4.037 10.562.867 2.264 10.051 25.639L431 219h13l.356-3.882 3.967-37.355.676-5.758 1.816-15.412 1.521-12.909 3.587-30.417 3.695-31.365 3.182-27.013 1.896-16.101 1.78-15.085.652-5.54.892-7.541.258-2.229c.354-2.945.78-5.569 1.722-8.393z" fill="#dcb325"/><path d="M155 391h303v353c-26.665-2.319-26.665-2.319-36.562-4.375l-3.279-.655c-21.607-4.418-21.607-4.418-24.158-6.97-.097-1.434-.124-2.872-.123-4.309l-.006-2.835.009-3.151-.003-3.319.009-11.102v-7.922l.008-17.102.012-24.726.018-40.113.021-38.976.001-2.425.004-12.043L394 464l-74.192-.466-34.45-.213-30.032-.168-15.896-.105-14.976-.066-5.483-.055c-11.869-.35-11.869-.35-21.891 5.422A171.79 171.79 0 0 0 193 473c-1.291 1.17-2.601 2.32-3.937 3.438-3.175 2.76-6.278 5.59-9.375 8.438-4.618 4.214-9.367 8.219-14.234 12.141-2.038 1.649-4.032 3.333-6.016 5.047C157 504 157 504 155 504V391z" fill="#c01e23"/><path d="M204.766 462.886l2.269.016 2.207.008 2.82.028 4.783.033L221 463l-.427 3.462c-1.387 11.793-1.939 23.418-1.886 35.288l.007 2.64c.054 13.732.639 27.104 3.306 40.61l.586 3.046C230.349 587.3 246.388 625.014 272 656l1.319 1.606C282.188 668.378 291.244 679.065 302 688l2.785 2.445c24.648 21.564 53.75 37.727 84.876 47.798l4.42 1.459c23.275 7.843 47.681 10.531 72.106 10.548l2.704.002c13.899-.017 27.434-.553 41.108-3.252l2.799-.552c6.446-1.311 12.828-2.821 19.201-4.448l2.223-.553c36.711-9.289 71.672-29.44 99.301-55.158 2.093-1.935 4.227-3.775 6.414-5.602C681.829 643.99 707.042 586.253 714 532l.266-2.046c.664-5.48.895-10.871.902-16.387l.01-2.657.007-5.544.039-8.293c.035-11.494-.681-22.682-2.225-34.072 18.325-1.439 18.325-1.439 24.579 3.381 4.864 4.306 7.13 6.963 7.642 13.402C747.22 529.054 741.086 577.25 719 622l-1.324 2.701C711.034 638.135 703.711 650.804 695 663l-1.222 1.72c-8.031 11.222-17.078 21.563-26.466 31.655l-1.834 1.981c-4.251 4.522-8.757 8.62-13.478 12.644l-2.992 2.633C609.192 748.054 560.123 770.524 508 778l-3.609.537c-12.303 1.711-24.549 1.82-36.953 1.775l-3.225-.007c-15.277-.05-30.178-.351-45.212-3.306l-3.141-.586C391.219 771.729 367.498 764.109 345 753l-2.6-1.273c-29.421-14.533-59.56-35.363-80.76-60.782a96.91 96.91 0 0 0-3.531-3.953c-45.615-48.487-69.645-116.726-69.37-182.674l-.013-9.318.008-5.984-.012-2.784c.035-4.778.275-8.798 2.278-13.232 2.566-2.52 2.566-2.52 5.563-4.812l3.004-2.332L202 464c1-1 1-1 2.766-1.114z" fill="#dbb225"/><path d="M971 289c-2.416 2.416-4.274 2.926-7.511 4.009l-3.528 1.189-3.863 1.283-4.008 1.347-8.556 2.866-20.267 6.806-4.513 1.519-36.442 12.544L830 338.5l-53.812 18.438-5.08 1.777-7.47 2.614-5.013 1.754-5.447 1.906-17.405 6.052-5.49 1.913-7.531 2.61-2.256.799c-5.151 1.753-5.151 1.753-8.494.638l-3.398-6.09-.96-1.874-3.016-5.973-2-3.924L692 338l135.675-24.452 32.604-5.799 28.342-5.042 2.977-.529 8.686-1.545 2.828-.503 13.594-2.414 5.196-.921 2.549-.452 15.148-2.709 9.558-1.713 4.422-.798 6.02-1.081 3.4-.613c2.721-.389 5.258-.514 8-.428z" fill="#fdcc08"/><path d="M541 784l.622 22.249.284 10.337c1.058 27.178 1.058 27.178-8.244 37.674-1.064 1.117-2.143 2.22-3.241 3.303-1.845 1.868-3.301 3.909-4.76 6.086l-1.32 1.887-1.277 1.84L510.5 885 498 902.5l-4.425 6.269-3.33 4.724-5.37 7.57-1.687 2.402-1.57 2.195-1.387 1.957L479 929h-2V793l32-3c14.699-2.415 14.699-2.415 29.261-5.568C540 784 540 784 541 784z" fill="#e81c23"/><path d="M394 784l2.166.395 23.084 4.105 3.602.645c11.765 2.01 23.112 2.809 35.148 3.855v136h-2a163.65 163.65 0 0 1-5.312-7.375l-3.27-4.711-1.709-2.468L437.5 903l-13.98-19.605-12.453-17.365-3.054-4.33c-1.611-2.16-3.233-4.03-5.064-5.99-11.152-12.677-10.435-25.533-9.772-41.763l.238-10.159L394 784z" fill="#e41c23"/><path d="M855 141l2 1c-6.613 6.175-13.3 12.143-20.352 17.82-2.621 2.157-5.14 4.393-7.648 6.68-3.396 3.096-6.862 6.052-10.437 8.938-4.774 3.861-9.296 7.937-13.812 12.094-3.562 3.198-7.276 6.183-11 9.188-2.831 2.348-5.544 4.79-8.25 7.281-4.447 4.094-9.047 7.924-13.75 11.719-2.831 2.348-5.544 4.79-8.25 7.281-4.447 4.094-9.047 7.924-13.75 11.719-2.831 2.348-5.544 4.79-8.25 7.281-4.447 4.094-9.047 7.924-13.75 11.719-2.831 2.348-5.544 4.79-8.25 7.281-4.47 4.114-9.09 7.971-13.816 11.785-2.631 2.171-5.163 4.417-7.684 6.715-4.267 3.89-8.692 7.531-13.187 11.152-3.954 3.3-7.677 6.824-11.402 10.379-3.62 2.957-3.62 2.957-6.41 2.969-1.754-1.336-1.754-1.336-3.562-3.375-3.01-3.203-6.07-6.062-9.5-8.812-4.772-3.845-9.471-7.763-14.125-11.75l-2.037-1.721c-1.631-1.403-3.208-2.867-4.775-4.341v-2l2.149-1.234 33.304-19.421 16.109-9.595 2.833-1.672 5.742-3.388L707 228.5l5.5-3.25 2.75-1.625 99.004-58.502 5.458-3.226 14.385-8.499 3.025-1.787 5.734-3.387 2.615-1.545 2.415-1.419c1.724-1.029 3.421-2.103 5.109-3.19L855 141zm-770-3c7.035 3.294 13.671 7.132 20.305 11.16l17.758 10.59 3.54 2.096L159 181l37.232 22.027L230 223l33.772 19.976 27.478 16.274 2.686 1.59L308 269c-1.535 4.242-4.691 6.298-8.187 8.875C290.585 284.881 282.166 292.79 274 301c-4.697-1.447-7.678-4.211-11.125-7.562-4.897-4.647-9.928-8.997-15.195-13.227-2.812-2.32-5.498-4.742-8.18-7.211-4.47-4.114-9.09-7.971-13.816-11.785-3.489-2.88-6.814-5.922-10.156-8.969-2.597-2.308-5.261-4.502-7.965-6.684-4.774-3.861-9.296-7.937-13.812-12.094-2.687-2.413-5.44-4.701-8.25-6.969-4.756-3.837-9.255-7.894-13.75-12.031-2.687-2.413-5.44-4.701-8.25-6.969-4.756-3.837-9.255-7.894-13.75-12.031-2.687-2.413-5.44-4.701-8.25-6.969-3.785-3.053-7.422-6.207-11-9.5-4.47-4.114-9.09-7.971-13.816-11.785-2.631-2.171-5.163-4.417-7.684-6.715-4.333-3.948-8.822-7.66-13.371-11.355l-7.316-6.082-1.949-1.652C85 140 85 140 85 138zM258 37c4 3.75 7.03 7.695 10.063 12.25l2.918 4.305 1.509 2.229 7.385 10.591 1.504 2.13 11.058 15.37a722.38 722.38 0 0 1 13.188 18.813c4.262 6.278 8.624 12.453 13.146 18.546 4.415 5.969 8.653 12.058 12.895 18.15l11.897 16.678a699.96 699.96 0 0 1 13.063 18.625c4.257 6.27 8.612 12.44 13.13 18.524 4.558 6.159 8.933 12.442 13.299 18.737 3.18 4.574 6.429 9.058 9.868 13.442C394 227 394 227 394 229l-1.886.592c-12.281 3.886-24.224 7.963-35.779 13.701l-2.315 1.117-1.997 1.004c-2.912.843-4.22.827-7.023-.414a57.65 57.65 0 0 1-3.836-8.043l-1.066-2.575-3.473-8.57-2.5-6.073-3.97-9.646-14.139-33.57-7.301-17.118-2.891-6.781-13.199-31-1.236-2.905-7.207-16.942-2.375-5.583-6.972-16.394-2.112-4.967-4.791-11.285-4.191-9.801-2.225-5.201-1.066-2.457-.972-2.283-.866-2.013C258 40 258 40 258 37zm422 3l2 1-1.107 2.578-41.19 96.827-23.464 55.244-12.668 30.073-2.877 6.948-2.535 6.256-1.514 3.655-1.27 3.132C594 248 594 248 592.045 248.924c-3.532.131-6.419-1.782-9.483-3.362-6.791-3.356-13.66-6.271-20.75-8.937l-2.679-1.01c-4.352-1.623-8.714-3.183-13.133-4.615 1.629-5.109 4.721-8.997 7.875-13.25l3.551-4.855 1.815-2.478 7.822-10.979 1.486-2.11 2.968-4.218 8.986-12.736 7.462-10.587 15.473-21.66c4.503-6.2 8.884-12.472 13.188-18.812 4.261-6.277 8.624-12.451 13.143-18.544 5.666-7.662 11.075-15.504 16.524-23.321l22.176-31.17L680 40zM470 0h1l15.966 131.068 2.633 22.138 2.574 21.649 1.522 12.801 1.411 11.89.518 4.349.702 5.925.397 3.344C497 216 497 216 497 220l-53-1 3.697-35.954.307-2.597.318-2.686.676-5.758 1.816-15.412 1.521-12.909 3.587-30.417 3.695-31.365 3.182-27.013 1.896-16.101 1.78-15.085.652-5.54.892-7.541.258-2.229c.354-2.945.78-5.569 1.722-8.393zM0 295c11.226.538 22.165 2.664 33.199 4.662l6.395 1.143 17.281 3.105 18.13 3.252 34.331 6.166 38.964 6.995 60.63 10.885 3.052.549L241 337c-1.422 4.967-3.585 8.868-6.312 13.188-4.294 6.965-8.091 14.022-10.687 21.813-7.717-2.009-15.268-4.344-22.812-6.922l-3.362-1.141L187 360.25l-3.787-1.288-49.854-17.22-52.37-17.921-59.061-20.292-2.482-.871-4.452-1.567L0 296v-1zm809-27l-2.114 1.171-39.314 21.98-21.198 11.912-23.125 13.063-2.541 1.448-13.541 7.876-2.905 1.705-5.514 3.278-2.503 1.462-2.198 1.308c-2.049.798-2.049.798-4.155.647-2.381-1.069-3.09-2.121-4.437-4.342l-1.314-2.137-1.33-2.246-1.365-2.223c-1.804-2.97-3.344-5.592-4.447-8.902l51.625-19 15.266-5.508 1.92-.694 27.049-9.978 3.254-1.219 15.124-5.711 5.349-2.008 2.428-.94c3.784-1.407 6.127-2.187 9.986-.942zm-113-98h2c-1.596 5.241-4.938 8.99-8.312 13.188-4.836 6.11-9.541 12.279-14.062 18.625-4.754 6.659-9.644 13.197-14.625 19.688-4.998 6.514-9.908 13.074-14.687 19.75l-13.375 18.313-1.626 2.222-1.534 2.032-1.336 1.795c-1.813 1.747-2.937 2.176-5.441 2.388-1.875-.773-1.875-.773-3.785-2.02l-2.107-1.35-2.17-1.443-2.182-1.408L604 256c0-3 0-3 1.328-4.437L607.25 250c3.627-3.038 7.15-6.165 10.625-9.375L634 226l5-4.5 20-18 2.508-2.258 4.922-4.422 15.228-13.855a472.76 472.76 0 0 1 10.819-9.626c1.215-1.069 2.379-2.196 3.523-3.34zm-563 92c6.556.579 12.264 2.745 18.395 5.059l3.395 1.261 9.127 3.408 15.412 5.729 5.933 2.203 45.443 16.476L263 308c0 5.057-2.038 6.663-5.375 10.063-4.082 4.241-4.082 4.241-7.625 8.938-4.059-.599-7.022-1.913-10.586-3.922l-3.284-1.838-3.505-1.99-3.65-2.051-9.239-5.216-7.752-4.378-11.234-6.355-18.375-10.312-26.009-14.724L133 263v-1zm112-97c4.819 3.417 9.127 6.99 13.238 11.23 2.378 2.389 4.917 4.561 7.469 6.762 2.762 2.419 5.467 4.897 8.168 7.383L290 205l5 4.5 2.5 2.25 10.008 9.008 4.922 4.422 13.758 12.508c4.197 3.862 8.447 7.641 12.813 11.313-1.373 4.119-4.126 5.048-7.75 7l-3.734 2.063-1.818.988c-1.517.849-2.994 1.77-4.463 2.699C319 263 319 263 316 263c-1.28-1.319-1.28-1.319-2.574-3.199l-1.498-2.133-1.615-2.356-3.516-4.984-1.873-2.65c-3.193-4.444-6.527-8.777-9.861-13.115l-17.054-22.75L267 197l-4.394-5.858-3.455-4.601-5.776-7.729-1.832-2.432-1.707-2.299-1.514-2.024c-1.455-2.266-2.397-4.534-3.322-7.058zm306-51c.964 3.109.99 5.41.513 8.619l-.404 2.796-.464 3.045-.472 3.223-1.575 10.551-1.08 7.314-2.866 19.254-2.915 19.646L536 227l-4.738-.455-2.665-.256c-3.589-.399-7.058-1.064-10.596-1.789l-3.875-.781C511 223 511 223 509 222c.741-5.116 2.712-9.736 4.586-14.52l1.118-2.883 3.671-9.41 2.549-6.544L529 168l1.36-3.468 7.891-20.056 2.485-6.304 3.482-8.81 1.03-2.617c1.733-4.361 3.573-8.583 5.751-12.747zm-163-2c2.417 2.417 3.08 4.442 4.293 7.641l1.386 3.624.741 1.959 4.037 10.562.867 2.264 9.111 23.265 15.56 39.523 1.881 4.801 2.59 6.628.784 1.989C431 218.771 431 218.771 431 221l-10.687 2-3.053.578-2.959.547-2.714.508c-2.567.364-4.998.432-7.587.367-3.493-20.101-6.475-40.274-9.429-60.46l-2.085-14.134-1.616-10.997-.77-5.216-1.062-7.251-.321-2.133c-.616-4.302-.811-8.465-.717-12.808z" fill="#fdcc08"/></svg>