<?xml version="1.0" encoding="UTF-8"?>
<svg version="1.1" xmlns="http://www.w3.org/2000/svg" width="971" height="959">
<path d="M0 0 C99.99 0 199.98 0 303 0 C303 116.49 303 232.98 303 353 C276.33547262 350.68134544 276.33547262 350.68134544 266.4375 348.625 C265.3554126 348.40875977 264.2733252 348.19251953 263.15844727 347.96972656 C241.55129916 343.55129916 241.55129916 343.55129916 239 341 C238.90337758 339.56649935 238.87628173 338.12824998 238.87695217 336.69149685 C238.87496112 335.75595579 238.87297007 334.82041472 238.87091869 333.85652393 C238.87383153 332.81666263 238.87674437 331.77680133 238.87974548 330.70542908 C238.87846385 329.06255939 238.87846385 329.06255939 238.87715632 327.38650042 C238.87549829 323.68595477 238.88102814 319.98545363 238.88647461 316.28491211 C238.88675644 313.64440305 238.88664295 311.00389678 238.8860321 308.36338806 C238.88550668 302.66284149 238.8886554 296.96230632 238.89426994 291.26176262 C238.90238246 283.01964187 238.90499991 274.77752667 238.90625793 266.53540237 C238.90844885 253.16446759 238.91510999 239.79353889 238.92456055 226.42260742 C238.93373365 213.43074575 238.94080352 200.43888573 238.94506836 187.44702148 C238.94533636 186.63859867 238.94560435 185.83017586 238.94588047 184.99725538 C238.94795978 178.67525437 238.94991675 172.35325333 238.95183504 166.03125226 C238.96127591 135.02082926 238.98139251 104.01042148 239 73 C181.91 73.33 124.82 73.66 66 74 C64.31174208 87.32478043 64.31174208 87.32478043 63.69921875 100.6015625 C63.69357407 101.40309753 63.68792938 102.20463257 63.68211365 103.03045654 C63.67034581 105.56218242 63.67622486 108.093278 63.6875 110.625 C63.68965515 111.50117981 63.6918103 112.37735962 63.69403076 113.28009033 C63.74821453 127.04934432 64.32579799 140.45700776 67 154 C67.19335938 155.00530762 67.38671875 156.01061523 67.5859375 157.04638672 C75.34921732 196.30006933 91.38840729 234.01363744 117 265 C117.43521973 265.52996582 117.87043945 266.05993164 118.31884766 266.60595703 C127.18824971 277.37754103 136.24364977 288.0651351 147 297 C148.37865234 298.21042969 148.37865234 298.21042969 149.78515625 299.4453125 C174.43309131 321.00932047 203.5353634 337.17197451 234.66113281 347.24316406 C236.13727157 347.720829 237.61097687 348.20614377 239.08105469 348.70214844 C262.35607762 356.54494439 286.76164995 359.23341819 311.1875 359.25 C312.07983337 359.25067474 312.97216675 359.25134949 313.89154053 359.25204468 C327.79065685 359.23536636 341.32595807 358.69909647 355 356 C355.92361328 355.81775879 356.84722656 355.63551758 357.79882812 355.44775391 C364.2445242 354.13648637 370.62731804 352.6269347 377 351 C378.10021484 350.72615479 378.10021484 350.72615479 379.22265625 350.44677734 C415.93327638 341.15761809 450.89455086 321.0070175 478.5234375 295.2890625 C480.61682183 293.35416784 482.75082207 291.51423094 484.9375 289.6875 C526.83126887 252.98787727 552.03812505 195.25450891 559 141 C559.08814468 140.32509018 559.17628937 139.65018036 559.2671051 138.95481873 C559.93560141 133.4601129 560.14648644 128.06314296 560.1328125 122.53125 C560.13376923 121.65206909 560.13472595 120.77288818 560.13571167 119.86706543 C560.13638806 118.01489185 560.13457176 116.16271582 560.13037109 114.31054688 C560.12506708 111.53509926 560.13030781 108.75981732 560.13671875 105.984375 C560.13605688 104.16666632 560.13477346 102.34895774 560.1328125 100.53125 C560.13483673 99.72852661 560.13686096 98.92580322 560.13894653 98.09875488 C560.10621716 89.68281075 559.49699267 81.44887534 559 73 C501.91 73 444.82 73 386 73 C386 161.77 386 250.54 386 342 C360.51470953 348.95053376 360.51470953 348.95053376 351.1875 350.3125 C349.76147461 350.54549805 349.76147461 350.54549805 348.30664062 350.78320312 C339.48906361 352.14289568 331.01613273 352.46963925 322 353 C322 236.51 322 120.02 322 0 C421.99 0 521.98 0 625 0 C625 37.29 625 74.58 625 113 C620.97505045 110.98752523 617.96806684 108.55884458 614.625 105.625 C614.01938232 105.10059326 613.41376465 104.57618652 612.78979492 104.03588867 C610.19685768 101.79032419 607.61258979 99.53489695 605.02880859 97.27880859 C603.12646258 95.61978038 601.21960036 93.96605813 599.3125 92.3125 C598.72484863 91.79574707 598.13719727 91.27899414 597.53173828 90.74658203 C595.02892199 88.57776756 593.17556139 87.05852046 590 86 C590.03552979 86.76852295 590.07105957 87.5370459 590.10766602 88.32885742 C592.31202401 137.71898863 586.14888909 186.12206503 564 231 C563.56316895 231.89138672 563.12633789 232.78277344 562.67626953 233.70117188 C556.03440818 247.1353796 548.71120647 259.80431095 540 272 C539.5968457 272.56750977 539.19369141 273.13501953 538.77832031 273.71972656 C530.74720172 284.94138331 521.70022477 295.28313739 512.3125 305.375 C511.70712402 306.02887695 511.10174805 306.68275391 510.47802734 307.35644531 C506.22684329 311.87829538 501.72105944 315.97607125 497 320 C495.51886719 321.30324219 495.51886719 321.30324219 494.0078125 322.6328125 C454.19192328 357.05359478 405.12297725 379.52448465 353 387 C351.80898682 387.17732666 350.61797363 387.35465332 349.39086914 387.53735352 C337.08802693 389.24875738 324.84191033 389.35762406 312.4375 389.3125 C311.37318756 389.31034485 310.30887512 389.3081897 309.21231079 389.30596924 C293.9351329 389.25627708 279.03411409 388.95542414 264 386 C262.96359375 385.80664062 261.9271875 385.61328125 260.859375 385.4140625 C236.21893499 380.72890841 212.49755398 373.10940365 190 362 C189.14212891 361.57992676 188.28425781 361.15985352 187.40039062 360.72705078 C157.9795505 346.19444898 127.84013362 325.3641408 106.640625 299.9453125 C105.50150969 298.59464721 104.3206474 297.27853877 103.109375 295.9921875 C55.98720636 245.9030675 33.33659652 176.68336328 33.875 108.875 C33.88506029 106.64453532 33.8941807 104.41406619 33.90234375 102.18359375 C33.92409155 96.78896336 33.95732243 91.39450337 34 86 C24.84844661 93.83752499 24.84844661 93.83752499 15.7109375 101.69140625 C14.85822266 102.42520508 14.85822266 102.42520508 13.98828125 103.17382812 C12.87293998 104.1338858 11.75840828 105.0948845 10.64453125 106.05664062 C2.56737095 113 2.56737095 113 0 113 C0 75.71 0 38.42 0 0 Z " fill="#C81E23" transform="translate(155,391)"/>
<path d="M0 0 C0.33 0 0.66 0 1 0 C6.5429697 43.66346739 11.78314112 87.36109325 16.96644652 131.06846189 C17.84183843 138.4481303 18.72031616 145.82742917 19.59941572 153.20665669 C20.45899101 160.42287453 21.31676484 167.63930491 22.1730662 174.85591197 C22.6794254 179.12319368 23.18644984 183.39039349 23.6952343 187.65738678 C24.16771871 191.62060155 24.63795545 195.5840765 25.10642624 199.54776764 C25.27815744 200.9975337 25.45068829 202.44720529 25.62407494 203.89677429 C25.86014393 205.87145679 26.09305084 207.84651656 26.32579041 209.82159424 C26.45681121 210.92506824 26.58783201 212.02854225 26.72282314 213.16545486 C27 216 27 216 27 220 C30.96 220.33 34.92 220.66 39 221 C39.36351562 219.86046875 39.72703125 218.7209375 40.1015625 217.546875 C42.61370812 210.02502667 45.52127584 202.64704573 48.375 195.25 C48.84721985 194.02375412 48.84721985 194.02375412 49.32897949 192.7727356 C55.55037281 176.62737356 61.88833258 160.5280171 68.25 144.4375 C68.71315613 143.26376831 69.17631226 142.09003662 69.65350342 140.8807373 C70.97956973 137.52216967 72.30946261 134.16514432 73.640625 130.80859375 C74.03692108 129.80394577 74.43321716 128.79929779 74.84152222 127.76420593 C76.71175766 123.06175442 78.63611235 118.47624788 81 114 C81.9154459 117.00053719 82.01738448 119.21310935 81.55079651 122.30622864 C81.42595886 123.15985489 81.30112122 124.01348114 81.17250061 124.89297485 C81.02864426 125.82137177 80.8847879 126.74976868 80.73657227 127.70629883 C80.59041473 128.69050308 80.4442572 129.67470734 80.29367065 130.68873596 C79.80831089 133.94593433 79.31218857 137.20140453 78.81640625 140.45703125 C78.47785002 142.72128717 78.14012853 144.98566805 77.8032074 147.25016785 C76.91371281 153.21775412 76.01578914 159.1840372 75.11523438 165.14996338 C73.67573134 174.68841951 72.24414038 184.22803815 70.82166862 193.76904869 C70.32316195 197.09939877 69.81813803 200.42871623 69.31263733 203.75801086 C69.00576736 205.80714011 68.699149 207.85630705 68.39282227 209.90551758 C68.18007408 211.28900391 68.18007408 211.28900391 67.96302795 212.70043945 C67.24808218 217.52855126 66.85191202 222.11922254 67 227 C69.97 227.66 72.94 228.32 76 229 C82.67341986 219.85817933 89.27046215 210.67960205 95.625 201.3125 C99.88641678 195.03458791 104.24925656 188.85903759 108.77050781 182.76611328 C113.18578972 176.79707113 117.42353964 170.70859128 121.66552734 164.61572266 C125.57304129 159.01271615 129.5428874 153.46051101 133.5625 147.9375 C138.02596463 141.80057489 142.3632312 135.59107745 146.625 129.3125 C150.88603789 123.03554165 155.2489109 116.86133348 159.76831055 110.76831055 C165.43397262 103.10636156 170.84316153 95.26397575 176.29199219 87.44726562 C183.59066622 76.98958859 190.98668483 66.60521828 198.46777344 56.27734375 C202.36772509 50.88953546 206.21896854 45.47218371 210 40 C210.66 40.33 211.32 40.66 212 41 C211.63463135 41.85078125 211.2692627 42.7015625 210.89282227 43.578125 C197.05552468 75.80872058 183.33150137 108.08639901 169.7024231 140.40557861 C161.45108566 159.96835778 153.13017284 179.50130737 144.80433655 199.0324707 C144.33523361 200.13292725 143.86613068 201.23338379 143.3828125 202.3671875 C142.92083969 203.45088623 142.45886688 204.53458496 141.9828949 205.65112305 C137.83285136 215.38821387 133.69425663 225.13013694 129.5625 234.875 C129.26669037 235.57266479 128.97088074 236.27032959 128.66610718 236.98913574 C127.11015973 240.65917888 125.5547633 244.32945507 124 248 C128.5309398 251.53018023 128.5309398 251.53018023 134 253 C137.08479186 251.13944168 139.46221754 248.53352444 142 246 C143.95243826 244.20127581 145.91058104 242.41046761 147.875 240.625 C148.9119733 239.67243529 149.94843271 238.71931086 150.984375 237.765625 C155.2914601 233.80879841 159.64647772 229.90557144 164 226 C165.66692647 224.50028872 167.33359149 223.00028679 169 221.5 C175.66666667 215.5 182.33333333 209.5 189 203.5 C189.82757812 202.75492188 190.65515625 202.00984375 191.5078125 201.2421875 C193.14739879 199.76707382 194.78799655 198.29308348 196.4296875 196.8203125 C200.49578739 193.16991611 204.54688401 189.5048251 208.56884766 185.8059082 C212.52891026 182.16456416 216.4894041 178.52318147 220.5 174.9375 C221.0878125 174.41027344 221.675625 173.88304687 222.28125 173.33984375 C224.09580328 171.92531699 225.91279864 170.95663396 228 170 C226.40405504 175.2408773 223.06248071 178.99026936 219.6875 183.1875 C214.85143944 189.29754977 210.14698155 195.46641871 205.625 201.8125 C200.87137835 208.47166511 195.98063402 215.00895259 191 221.5 C185.49107704 228.68478291 180.09562592 235.9337825 174.8215332 243.29248047 C168.63415593 251.92517432 162.31613391 260.46128446 156 269 C158.33214148 270.20628008 160.49642139 271.1654738 163 272 C165.6201109 270.8750178 165.6201109 270.8750178 168.453125 269.1328125 C169.53948242 268.49907715 170.62583984 267.8653418 171.74511719 267.21240234 C172.91356976 266.51686744 174.08186071 265.82106094 175.25 265.125 C176.44645273 264.42185883 177.64339506 263.71955011 178.84082031 263.01806641 C182.23522181 261.02535306 185.6186705 259.01481476 189 257 C189.77085937 256.54173828 190.54171875 256.08347656 191.3359375 255.61132812 C194.29712277 253.84829312 197.25073616 252.0732471 200.19921875 250.2890625 C204.96677067 247.40863964 209.76567619 244.58130819 214.5625 241.75 C215.49739258 241.19812012 216.43228516 240.64624023 217.39550781 240.07763672 C219.30932919 238.94810941 221.22322961 237.81871601 223.13720703 236.68945312 C227.7593711 233.96172198 232.37961088 231.23073618 237 228.5 C238.83332361 227.41665021 240.66665695 226.33331689 242.5 225.25 C243.86125 224.445625 243.86125 224.445625 245.25 223.625 C341.50000003 166.74999998 341.50000003 166.74999998 344.25415039 165.12255859 C346.07366207 164.04738525 347.89316093 162.9721902 349.71264648 161.89697266 C354.50734213 159.06360653 359.30230929 156.2307012 364.09765625 153.3984375 C365.09603516 152.80869141 366.09441406 152.21894531 367.12304688 151.61132812 C369.034423 150.48228269 370.94587709 149.35336923 372.85742188 148.22460938 C373.72044922 147.71478516 374.58347656 147.20496094 375.47265625 146.6796875 C376.26945801 146.21143555 377.06625977 145.74318359 377.88720703 145.26074219 C379.61133022 144.23192636 381.30814726 143.15746448 382.99609375 142.0703125 C383.65738281 141.71710938 384.31867187 141.36390625 385 141 C385.66 141.33 386.32 141.66 387 142 C380.38667174 148.17474803 373.69968124 154.14295006 366.6484375 159.8203125 C364.02724881 161.97757399 361.50845719 164.21311 359 166.5 C355.60401318 169.59555196 352.13828469 172.55151207 348.5625 175.4375 C343.788597 179.29825137 339.26611572 183.37437075 334.75 187.53125 C331.18815771 190.72881296 327.47434167 193.71388343 323.75 196.71875 C320.91900422 199.06718968 318.20616402 201.50909902 315.5 204 C311.05272888 208.09351091 306.45282537 211.92442499 301.75 215.71875 C298.91900422 218.06718968 296.20616402 220.50909902 293.5 223 C289.05272888 227.09351091 284.45282537 230.92442499 279.75 234.71875 C276.91900422 237.06718968 274.20616402 239.50909902 271.5 242 C267.05272888 246.09351091 262.45282537 249.92442499 257.75 253.71875 C254.91900422 256.06718968 252.20616402 258.50909902 249.5 261 C245.0301488 265.11378909 240.40955107 268.97087297 235.68359375 272.78515625 C233.05291443 274.95632827 230.52057576 277.20241357 228 279.5 C223.73500138 283.38768437 219.31190388 287.02701198 214.8203125 290.6484375 C210.80948764 293.99264327 207.01408226 297.54770151 203.21484375 301.12890625 C201 303 201 303 199 303 C201.06007659 306.60513403 203.3513141 309.80331012 206 313 C212.110167 312.34385286 217.58696426 310.08602576 223.296875 307.94140625 C224.41870682 307.52524048 225.54053864 307.10907471 226.69636536 306.68029785 C229.74822394 305.5476132 232.79839173 304.4105045 235.84801102 303.27180862 C240.99205002 301.3534425 246.14122722 299.44886826 251.28978157 297.54266167 C252.60878296 297.05426667 253.92771539 296.56568537 255.24658012 296.07692146 C271.02642831 290.22975304 286.86063869 284.53579156 302.70410156 278.86352539 C303.67590363 278.5151915 304.64770569 278.1668576 305.6489563 277.80796814 C307.51896647 277.13801992 309.3894534 276.46940061 311.26046753 275.80226135 C315.46369467 274.29788492 319.64805146 272.76268628 323.80419922 271.13232422 C324.54347153 270.8444957 325.28274384 270.55666718 326.04441833 270.26011658 C327.4012366 269.72810474 328.75452056 269.1869419 330.10316467 268.63453674 C333.41894973 267.3356929 335.62301692 266.5991735 339 268 C338.30253662 268.38631592 337.60507324 268.77263184 336.88647461 269.1706543 C323.75350417 276.44788646 310.63490251 283.7474529 297.57250977 291.15087891 C290.52046407 295.14628582 283.45058075 299.10894482 276.375 303.0625 C266.09931336 308.80786659 255.86498931 314.62208634 245.65283203 320.47949219 C240.83399747 323.24147467 236.01039297 325.99511251 231.1875 328.75 C229.41013711 329.7655915 227.63279149 330.78121323 225.85546875 331.796875 C224.5703125 332.53125 223.28515625 333.265625 222 334 C222 334.99 222 335.98 222 337 C230.04507993 336.36137147 237.91210084 335.05173655 245.84936523 333.61767578 C247.22596469 333.37181407 248.60262472 333.12629134 249.9793396 332.88107681 C253.72084759 332.21368303 257.46150155 331.5416101 261.20202518 330.86872435 C265.20417543 330.14964583 269.2071181 329.43500486 273.2099762 328.71987915 C280.0607322 327.49539527 286.91101492 326.2682938 293.76098633 325.03942871 C304.44728684 323.12243267 315.13468822 321.21162012 325.82226562 319.30175781 C329.403054 318.66178985 332.98383253 318.02176683 336.56460571 317.38171387 C337.45064503 317.22333731 338.33668435 317.06496075 339.24957335 316.9017849 C349.06880607 315.14649222 358.88768484 313.38922258 368.70654297 311.63183594 C419.3929556 302.5602497 419.3929556 302.5602497 441.61033154 298.60232735 C448.47385838 297.37948436 455.33666828 296.15272232 462.19892788 294.92278862 C466.37494728 294.17520522 470.55159237 293.43116851 474.72843742 292.68821335 C476.63064011 292.3491286 478.5325827 292.00858087 480.43423653 291.66643143 C482.98932367 291.20692066 485.54529222 290.75267983 488.1015625 290.29980469 C488.83782584 290.16606508 489.57408918 290.03232548 490.33266354 289.89453316 C493.93041637 289.26306728 497.34557935 288.85203109 501 289 C498.58386403 291.41613597 496.72646182 291.92621873 493.48852539 293.00854492 C492.32440125 293.40103424 491.1602771 293.79352356 489.96087646 294.19790649 C488.67315735 294.62549037 487.38541664 295.05300919 486.09765625 295.48046875 C484.76162701 295.92889789 483.42579494 296.37791483 482.09014893 296.82748413 C479.23910758 297.78606524 476.38694686 298.74120646 473.53384399 299.69363403 C466.7741992 301.9505536 460.02063589 304.22555977 453.26682091 306.49985313 C451.76272253 307.00627083 450.25855273 307.51247643 448.75431252 308.01847267 C436.57677022 312.11494972 424.43137432 316.29531211 412.3125 320.5625 C394.92110089 326.67897302 377.46672038 332.60312781 360 338.5 C342.90316559 344.27220755 325.81440992 350.06236878 308.78390503 356.02832031 C306.22066425 356.92588692 303.65649286 357.82074382 301.09204102 358.71484375 C293.21643028 361.46283975 285.3481383 364.22894164 277.49406433 367.03797913 C273.71883356 368.38389519 269.93798892 369.71352319 266.15591431 371.04006958 C264.37106398 371.67033853 262.58870439 372.3077149 260.80917358 372.95285034 C243.89468936 379.08053996 243.89468936 379.08053996 235 377 C233.16171868 376.77391464 231.32316121 376.55006661 229.484375 376.328125 C221.04645451 374.89730288 213.40998453 373.44511541 207.8515625 366.4921875 C204.79858964 362.04734486 202.17103412 357.36923732 199.55761719 352.65625 C197.22433535 348.67723646 194.4506093 345.16006372 191.5 341.625 C190.97083984 340.98691406 190.44167969 340.34882813 189.89648438 339.69140625 C167.4420059 313.00795552 140.81170342 292.1929121 110 276 C109.3493457 275.65227539 108.69869141 275.30455078 108.02832031 274.94628906 C87.55776725 264.13623399 63.74644014 256.97127439 41 253 C40.08138184 252.83918945 39.16276367 252.67837891 38.21630859 252.51269531 C11.39803849 248.07273593 -17.25033536 248.2103641 -44 253 C-44.92425781 253.16097168 -45.84851563 253.32194336 -46.80078125 253.48779297 C-95.73698867 262.29529503 -139.14198414 285.95107744 -175 320 C-175.80123291 320.75821045 -175.80123291 320.75821045 -176.61865234 321.53173828 C-184.91780004 329.44120831 -192.16378623 337.80596509 -199 347 C-199.47743652 347.6379248 -199.95487305 348.27584961 -200.44677734 348.93310547 C-202.77861011 352.05434063 -205.09808424 355.18465681 -207.39453125 358.33203125 C-207.80399994 358.87786362 -208.21346863 359.42369598 -208.63534546 359.98606873 C-210.0622194 361.97820205 -210.0622194 361.97820205 -211.06115723 364.2676239 C-213.08652679 368.23604576 -214.64203058 370.55079198 -218.97233582 371.98323059 C-222.79202227 372.49248098 -226.54041747 372.67559242 -230.38671875 372.6875 C-231.44036401 372.7074855 -231.44036401 372.7074855 -232.51529503 372.72787476 C-248.73185882 372.95723716 -262.74327847 368.43425812 -277.75344467 362.7686882 C-281.29635751 361.44604511 -284.86266131 360.18951118 -288.42700195 358.92602539 C-294.08676529 356.91225887 -299.73424935 354.86783806 -305.37207031 352.79345703 C-314.2837707 349.51600043 -323.24592824 346.39246647 -332.22055054 343.29248047 C-334.7004559 342.43300982 -337.17741317 341.56553529 -339.65356445 340.6953125 C-356.05996569 334.93271027 -372.53775579 329.38209202 -389.01302338 323.82045364 C-408.736568 317.16188691 -428.4300194 310.42480115 -448.07226562 303.52929688 C-448.89143967 303.24176544 -449.71061371 302.95423401 -450.55461121 302.6579895 C-452.03906428 302.13647697 -453.52323937 301.61417194 -455.0070343 301.09078979 C-459.98663903 299.33859803 -464.98784776 297.65668235 -470 296 C-470 295.67 -470 295.34 -470 295 C-458.7718993 295.53434187 -447.83497636 297.67166659 -436.80053711 299.67773438 C-434.66894752 300.06098446 -432.53726667 300.44372725 -430.40550232 300.82600403 C-425.8346655 301.64672916 -421.2644706 302.47091052 -416.69474602 303.29780579 C-409.46257499 304.60634889 -402.2289094 305.90649304 -394.99501038 307.20544434 C-380.94588043 309.72931198 -366.89820508 312.2612157 -352.85074615 314.79436493 C-334.96674155 318.01920189 -317.08232783 321.24173475 -299.19611365 324.45429659 C-292.01130571 325.7450731 -284.82736484 327.04054236 -277.64406765 328.33969879 C-273.1699662 329.14792347 -268.69516806 329.95223754 -264.2201786 330.7555294 C-262.15235135 331.12755213 -260.08481452 331.50119354 -258.01760101 331.87661171 C-243.58484808 334.49820491 -243.58484808 334.49820491 -229 336 C-227.02 333.03 -225.04 330.06 -223 327 C-224.34449219 326.27296875 -225.68898437 325.5459375 -227.07421875 324.796875 C-237.41375716 319.19036324 -247.69640642 313.50247098 -257.89379883 307.64135742 C-264.69521618 303.73528711 -271.52809666 299.88823029 -278.375 296.0625 C-289.28769309 289.96361475 -300.17707249 283.82462381 -311.05615234 277.66601562 C-316.34861617 274.67084452 -321.64321059 271.67944259 -326.9375 268.6875 C-328.88412327 267.58725496 -330.8307387 266.48699604 -332.77734375 265.38671875 C-333.59452881 264.92483154 -334.41171387 264.46294434 -335.25366211 263.98706055 C-335.82995361 263.66133057 -336.40624512 263.33560059 -337 263 C-333.46475973 261.75234524 -331.47608105 262.25118732 -327.99926758 263.52856445 C-326.99474045 263.89163193 -325.99021332 264.2546994 -324.95524597 264.62876892 C-323.86271011 265.03615799 -322.77017426 265.44354706 -321.64453125 265.86328125 C-320.49507523 266.2822316 -319.3456192 266.70118195 -318.16133118 267.13282776 C-315.02673669 268.27767389 -311.89595104 269.43200234 -308.7664566 270.5906601 C-305.49742417 271.79832154 -302.22382755 272.99347904 -298.95068359 274.18994141 C-292.91666679 276.39772669 -286.88660364 278.61608371 -280.85840988 280.83971405 C-273.11963392 283.69426616 -265.3766171 286.53725983 -257.63368225 289.38050842 C-252.50138473 291.26552228 -247.37001388 293.15293115 -242.24145508 295.0480957 C-230.20368113 299.49170651 -218.12538944 303.80129382 -206 308 C-203.69 305.69 -201.38 303.38 -199 301 C-205.39219895 294.39472775 -212.29230245 288.3379458 -219.4375 282.5625 C-224.20996203 278.70291397 -228.73109109 274.62800009 -233.24609375 270.47265625 C-236.83207284 267.25290481 -240.56701492 264.24094824 -244.31640625 261.21484375 C-247.80550916 258.33519113 -251.12996921 255.29306124 -254.47265625 252.24609375 C-257.06962393 249.93812402 -259.73404013 247.74444137 -262.4375 245.5625 C-267.211403 241.70174863 -271.73388428 237.62562925 -276.25 233.46875 C-278.93737634 231.05621896 -281.68965444 228.7674379 -284.5 226.5 C-289.25595419 222.66280969 -293.75504801 218.60614899 -298.25 214.46875 C-300.93737634 212.05621896 -303.68965444 209.7674379 -306.5 207.5 C-311.25595419 203.66280969 -315.75504801 199.60614899 -320.25 195.46875 C-322.93737634 193.05621896 -325.68965444 190.7674379 -328.5 188.5 C-332.28460334 185.44651321 -335.92207537 182.29331699 -339.5 179 C-343.9698512 174.88621091 -348.59044893 171.02912703 -353.31640625 167.21484375 C-355.94708557 165.04367173 -358.47942424 162.79758643 -361 160.5 C-365.33196142 156.55310182 -369.81665284 152.8386551 -374.37109375 149.15234375 C-377.99150687 146.18823137 -381.5070741 143.11260732 -385 140 C-384.67 139.34 -384.34 138.68 -384 138 C-368.02118559 147.2852541 -352.09999891 156.66277247 -336.20849609 166.09667969 C-331.3715481 168.96601819 -326.52991413 171.82739883 -321.6875 174.6875 C-320.79554932 175.2144043 -319.90359863 175.74130859 -318.98461914 176.28417969 C-316.32316863 177.85627089 -313.66160508 179.42817051 -311 181 C-298.58348345 188.33266064 -286.17204198 195.67377986 -273.76763916 203.0269165 C-262.51805905 209.69529156 -251.2604767 216.35004677 -240 223 C-227.01933285 230.66582372 -214.04467562 238.34167721 -201.0769043 246.02929688 C-192.68544132 251.00326645 -184.28914477 255.96899698 -175.88867188 260.92773438 C-175.05142578 261.42208984 -174.21417969 261.91644531 -173.3515625 262.42578125 C-172.58553711 262.87638916 -171.81951172 263.32699707 -171.03027344 263.79125977 C-169.3560318 264.7880335 -167.70232828 265.81921981 -166.0546875 266.859375 C-164.02714242 268.21208563 -164.02714242 268.21208563 -161.5 267.9375 C-158.47486417 266.80307406 -156.47482508 265.04998011 -154 263 C-161.48780117 252.49912815 -169.13092212 242.13998675 -176.97558594 231.90283203 C-182.05813757 225.26138746 -187.04558277 218.55601667 -191.99194336 211.81274414 C-195.63145645 206.85222644 -199.30046314 201.9158904 -203 197 C-204.4652082 195.04787961 -205.92959739 193.09514849 -207.39355469 191.14208984 C-208.54420209 189.60777672 -209.69603064 188.07434911 -210.84863281 186.54150391 C-212.77979068 183.96938045 -214.70306691 181.3915211 -216.625 178.8125 C-217.22957031 178.01005859 -217.83414063 177.20761719 -218.45703125 176.38085938 C-219.30201172 175.24293945 -219.30201172 175.24293945 -220.1640625 174.08203125 C-220.66373535 173.41405518 -221.1634082 172.7460791 -221.67822266 172.05786133 C-223.13351265 169.79213555 -224.07513065 167.52349367 -225 165 C-220.18131729 168.4168841 -215.87252195 171.99033691 -211.76171875 176.23046875 C-209.38342023 178.61931405 -206.8442452 180.79127977 -204.29296875 182.9921875 C-201.53094118 185.41072612 -198.82602288 187.88891376 -196.125 190.375 C-190.7838465 195.28815766 -185.40204264 200.15379455 -180 205 C-178.33307353 206.49971128 -176.66640851 207.99971321 -175 209.5 C-173.7625 210.61375 -173.7625 210.61375 -172.5 211.75 C-165 218.5 -165 218.5 -162.4921875 220.7578125 C-160.85260121 222.23292618 -159.21200345 223.70691652 -157.5703125 225.1796875 C-154.02158644 228.36560451 -150.47479577 231.55096445 -146.984375 234.80078125 C-144.01559759 237.56370475 -141.01781265 240.29063781 -138 243 C-137.23171875 243.69351563 -136.4634375 244.38703125 -135.671875 245.1015625 C-134.65867187 245.94847656 -134.65867187 245.94847656 -133.625 246.8125 C-133.06039063 247.29332031 -132.49578125 247.77414063 -131.9140625 248.26953125 C-128.96134647 249.3963841 -126.87552456 248.04389487 -124 247 C-124.54805298 245.72382813 -124.54805298 245.72382813 -125.10717773 244.421875 C-138.94447532 212.19127942 -152.66849863 179.91360099 -166.2975769 147.59442139 C-172.60754867 132.63435156 -178.9542385 117.69014423 -185.31976318 102.75363159 C-186.79766284 99.28482458 -188.27423899 95.81545692 -189.75048828 92.34594727 C-195.60822996 78.58340191 -195.60822996 78.58340191 -201.52384949 64.84567261 C-202.88068658 61.71203642 -204.23126422 58.57572424 -205.58114624 55.43908691 C-206.47401399 53.37264179 -207.3770516 51.31085135 -208.28051758 49.24902344 C-209.05431763 47.44933105 -209.05431763 47.44933105 -209.84375 45.61328125 C-210.28912109 44.59016846 -210.73449219 43.56705566 -211.19335938 42.51293945 C-212 40 -212 40 -211 37 C-203.64851711 47.11134192 -196.38211937 57.27433079 -189.23608398 67.53198242 C-185.36044155 73.08494152 -181.4215804 78.58694643 -177.4375 84.0625 C-172.97411511 90.1994849 -168.63677076 96.40891965 -164.375 102.6875 C-160.11339899 108.96528788 -155.75074789 115.14095642 -151.22949219 121.23388672 C-146.81421028 127.20292887 -142.57646036 133.29140872 -138.33447266 139.38427734 C-134.42695871 144.98728385 -130.4571126 150.53948899 -126.4375 156.0625 C-121.97403537 162.19942511 -117.6367688 168.40892255 -113.375 174.6875 C-109.11902275 180.95700349 -104.7631661 187.12539249 -100.24707031 193.2097168 C-95.07809388 200.19646872 -90.1304702 207.33736942 -85.1640625 214.46875 C-84.6165332 215.23316406 -84.06900391 215.99757812 -83.50488281 216.78515625 C-82 219 -82 219 -80.86230469 221.18359375 C-79.71570555 223.46701046 -79.71570555 223.46701046 -77 226 C-74.26234961 226.12637347 -74.26234961 226.12637347 -71.32666016 225.67773438 C-70.3307486 225.55926147 -69.33483704 225.44078857 -68.30874634 225.31872559 C-67.54686005 225.21354614 -66.78497375 225.1083667 -66 225 C-66.32436035 223.13323608 -66.32436035 223.13323608 -66.65527344 221.22875977 C-69.88411794 202.37813496 -72.65964137 183.46226801 -75.42871094 164.53979492 C-76.11850969 159.82771538 -76.8151882 155.11667927 -77.51343155 150.40584469 C-78.0556 146.74058074 -78.59322227 143.07466053 -79.12957001 139.40854073 C-79.38470319 137.66965466 -79.64145428 135.93100512 -79.89990997 134.19260979 C-80.25868864 131.77613244 -80.6110726 129.35880282 -80.96191406 126.94116211 C-81.06783875 126.23727356 -81.17376343 125.53338501 -81.28289795 124.8081665 C-81.89879727 120.50609148 -82.09381458 116.34320463 -82 112 C-79.58259716 114.41740284 -78.92004719 116.4417111 -77.70703125 119.640625 C-77.02084717 121.43439575 -77.02084717 121.43439575 -76.32080078 123.2644043 C-76.07622131 123.91081879 -75.83164185 124.55723328 -75.57965088 125.22323608 C-74.24541363 128.74820618 -72.89290529 132.26617549 -71.54296875 135.78515625 C-71.11389221 136.90571159 -71.11389221 136.90571159 -70.67614746 138.04890442 C-67.38922885 146.62018292 -64.00642106 155.15317603 -60.625 163.6875 C-53.33857013 182.09474999 -46.15437471 200.54107939 -39 219 C-34.71 219 -30.42 219 -26 219 C-25.82385461 217.07826179 -25.82385461 217.07826179 -25.64415073 215.11770058 C-24.48703057 202.64443211 -23.15005467 190.20276317 -21.67749023 177.76318359 C-21.4520302 175.84381802 -21.22676572 173.92442947 -21.00167847 172.00502014 C-20.39857717 166.86753569 -19.792558 161.73039969 -19.18577456 156.59334898 C-18.67780458 152.29058733 -18.17128116 147.98765587 -17.66473538 143.68472636 C-16.47109027 133.54542434 -15.275027 123.40640965 -14.07739258 113.26757812 C-12.84248795 102.81287035 -11.61167013 92.35768703 -10.38281292 81.90226686 C-9.32434794 72.89777725 -8.26342673 63.8935794 -7.20050579 54.8896147 C-6.56696808 49.5227487 -5.93436007 44.15577729 -5.30410576 38.78852463 C-4.71349551 33.75982586 -4.11982525 28.73149783 -3.52375412 23.70344353 C-3.30536263 21.85682665 -3.0880647 20.01008008 -2.87192345 18.16319847 C-2.57754039 15.64924316 -2.27926301 13.13578021 -1.97996521 10.62240601 C-1.89475048 9.88673413 -1.80953575 9.15106225 -1.72173876 8.39309728 C-1.3675045 5.44850342 -0.94126903 2.82380708 0 0 Z " fill="#DCB325" transform="translate(470,0)"/>
<path d="M0 0 C99.99 0 199.98 0 303 0 C303 116.49 303 232.98 303 353 C276.33547262 350.68134544 276.33547262 350.68134544 266.4375 348.625 C265.3554126 348.40875977 264.2733252 348.19251953 263.15844727 347.96972656 C241.55129916 343.55129916 241.55129916 343.55129916 239 341 C238.90337758 339.56649935 238.87628173 338.12824998 238.87695217 336.69149685 C238.87496112 335.75595579 238.87297007 334.82041472 238.87091869 333.85652393 C238.87383153 332.81666263 238.87674437 331.77680133 238.87974548 330.70542908 C238.87846385 329.06255939 238.87846385 329.06255939 238.87715632 327.38650042 C238.87549829 323.68595477 238.88102814 319.98545363 238.88647461 316.28491211 C238.88675644 313.64440305 238.88664295 311.00389678 238.8860321 308.36338806 C238.88550668 302.66284149 238.8886554 296.96230632 238.89426994 291.26176262 C238.90238246 283.01964187 238.90499991 274.77752667 238.90625793 266.53540237 C238.90844885 253.16446759 238.91510999 239.79353889 238.92456055 226.42260742 C238.93373365 213.43074575 238.94081498 200.43888574 238.94506836 187.44702148 C238.94533108 186.64676939 238.94559381 185.8465173 238.94586449 185.02201515 C238.94716949 181.0075547 238.94843321 176.99309423 238.94967639 172.97863376 C238.96005023 139.65241809 238.9776696 106.32620979 239 73 C214.26959324 72.78960375 189.53932093 72.63097474 164.80819893 72.53369045 C153.32462745 72.48731551 141.8416126 72.42410895 130.35839844 72.32104492 C120.34765491 72.23123956 110.33731455 72.17325232 100.32617939 72.15320355 C95.02685238 72.14148673 89.72867859 72.11402211 84.42972183 72.04842949 C79.43730455 71.98713464 74.44651035 71.96853629 69.45375252 71.98203087 C67.62599794 71.9795639 65.7981866 71.96178006 63.97075844 71.92715073 C52.10222623 71.57710475 52.10222623 71.57710475 42.07931519 77.34901428 C40.69295323 78.87561127 39.33049218 80.42447203 38 82 C36.70857684 83.16953687 35.39942702 84.32026394 34.0625 85.4375 C30.88778403 88.19784541 27.78462564 91.02792558 24.6875 93.875 C20.06930406 98.0891038 15.32085996 102.0936214 10.453125 106.015625 C8.41472084 107.66452518 6.42092742 109.34866466 4.4375 111.0625 C2 113 2 113 0 113 C0 75.71 0 38.42 0 0 Z " fill="#C01E23" transform="translate(155,391)"/>
<path d="M0 0 C0.74886475 0.00523682 1.49772949 0.01047363 2.26928711 0.01586914 C3.36188843 0.01961548 3.36188843 0.01961548 4.4765625 0.0234375 C5.40718506 0.0325415 6.33780762 0.04164551 7.29663086 0.05102539 C8.89094811 0.0625141 10.485268 0.0736403 12.07958984 0.08447266 C13.46443685 0.0941569 14.84928385 0.10384115 16.23413086 0.11352539 C16.09338135 1.25595703 15.95263184 2.39838867 15.80761719 3.57543945 C14.42090827 15.36887318 13.86822941 26.99384032 13.92163086 38.86352539 C13.92378601 39.73471008 13.92594116 40.60589478 13.92816162 41.503479 C13.98244538 55.23538759 14.56720161 68.60736467 17.23413086 82.11352539 C17.42749023 83.11883301 17.62084961 84.12414062 17.82006836 85.15991211 C25.58334818 124.41359472 41.62253815 162.12716283 67.23413086 193.11352539 C67.66935059 193.64349121 68.10457031 194.17345703 68.55297852 194.71948242 C77.42238057 205.49106642 86.47778063 216.17866049 97.23413086 225.11352539 C98.6127832 226.32395508 98.6127832 226.32395508 100.01928711 227.55883789 C124.66722217 249.12284586 153.76949426 265.2854999 184.89526367 275.35668945 C186.37140243 275.83435439 187.84510773 276.31966916 189.31518555 276.81567383 C212.59020848 284.65846978 236.99578081 287.34694358 261.42163086 287.36352539 C262.31396423 287.36420013 263.20629761 287.36487488 264.12567139 287.36557007 C278.02478771 287.34889175 291.56008893 286.81262186 305.23413086 284.11352539 C306.15774414 283.93128418 307.08135742 283.74904297 308.03295898 283.5612793 C314.47865506 282.25001176 320.8614489 280.74046009 327.23413086 279.11352539 C328.3343457 278.83968018 328.3343457 278.83968018 329.45678711 278.56030273 C366.16740724 269.27114348 401.12868172 249.12054289 428.75756836 223.40258789 C430.85095269 221.46769323 432.98495293 219.62775633 435.17163086 217.80102539 C477.06338091 181.10317118 502.27618636 123.36687342 509.23413086 69.11352539 C509.36573608 68.10054886 509.36573608 68.10054886 509.5 67.06710815 C510.16386835 61.58759858 510.3945742 56.19660307 510.40209961 50.67993164 C510.40542801 49.80312241 510.40875641 48.92631317 510.41218567 48.02293396 C510.41721805 46.17496255 510.41959514 44.32698216 510.41943359 42.47900391 C510.42160075 39.71443829 510.43974282 36.95028528 510.45874023 34.18579102 C510.49381362 22.69135623 509.77783795 11.50372222 508.23413086 0.11352539 C526.55906414 -1.3256698 526.55906414 -1.3256698 532.81323242 3.49487305 C537.67743579 7.80136769 539.94355788 10.45762976 540.45532227 16.89648438 C542.45447221 66.16766868 536.32006865 114.36314192 514.23413086 159.11352539 C513.7972998 160.00491211 513.36046875 160.89629883 512.91040039 161.81469727 C506.26853903 175.24890499 498.94533733 187.91783634 490.23413086 200.11352539 C489.83097656 200.68103516 489.42782227 201.24854492 489.01245117 201.83325195 C480.98133258 213.0549087 471.93435563 223.39666278 462.54663086 233.48852539 C461.94125488 234.14240234 461.33587891 234.7962793 460.7121582 235.4699707 C456.46097415 239.99182077 451.9551903 244.08959664 447.23413086 248.11352539 C445.75299805 249.41676758 445.75299805 249.41676758 444.24194336 250.74633789 C404.42605414 285.16712017 355.35710811 307.63801004 303.23413086 315.11352539 C302.04311768 315.29085205 300.85210449 315.46817871 299.625 315.65087891 C287.32215779 317.36228277 275.07604119 317.47114945 262.67163086 317.42602539 C261.60731842 317.42387024 260.54300598 317.42171509 259.44644165 317.41949463 C244.16926376 317.36980247 229.26824495 317.06894953 214.23413086 314.11352539 C212.67952148 313.82348633 212.67952148 313.82348633 211.09350586 313.52758789 C186.45306585 308.8424338 162.73168484 301.22292904 140.23413086 290.11352539 C139.37625977 289.69345215 138.51838867 289.27337891 137.63452148 288.84057617 C108.21368136 274.30797437 78.07426448 253.47766619 56.87475586 228.05883789 C55.73564055 226.7081726 54.55477826 225.39206416 53.34350586 224.10571289 C7.72870834 175.61887257 -16.3019245 107.3799787 -16.02661133 41.43188477 C-16.01573627 38.32557315 -16.02665569 35.21982132 -16.03930664 32.11352539 C-16.03798736 30.11873246 -16.03542978 28.12393987 -16.03149414 26.12915039 C-16.0355426 25.21039124 -16.03959106 24.29163208 -16.04376221 23.34503174 C-16.00883717 18.56744289 -15.76893196 14.54677157 -13.76586914 10.11352539 C-11.19946289 7.59399414 -11.19946289 7.59399414 -8.20336914 5.30102539 C-7.21208008 4.53145508 -6.22079102 3.76188477 -5.19946289 2.96899414 C-3.99483398 2.05053711 -3.99483398 2.05053711 -2.76586914 1.11352539 C-1.76586914 0.11352539 -1.76586914 0.11352539 0 0 Z " fill="#DBB225" transform="translate(204.765869140625,462.886474609375)"/>
<path d="M0 0 C-2.41613597 2.41613597 -4.27353818 2.92621873 -7.51147461 4.00854492 C-8.67559875 4.40103424 -9.8397229 4.79352356 -11.03912354 5.19790649 C-12.32684265 5.62549037 -13.61458336 6.05300919 -14.90234375 6.48046875 C-16.23837299 6.92889789 -17.57420506 7.37791483 -18.90985107 7.82748413 C-21.76089242 8.78606524 -24.61305314 9.74120646 -27.46615601 10.69363403 C-34.2258008 12.9505536 -40.97936411 15.22555977 -47.73317909 17.49985313 C-49.23727747 18.00627083 -50.74144727 18.51247643 -52.24568748 19.01847267 C-64.42322978 23.11494972 -76.56862568 27.29531211 -88.6875 31.5625 C-106.07889911 37.67897302 -123.53327962 43.60312781 -141 49.5 C-158.96586054 55.56560684 -176.91701861 61.66641948 -194.8125 67.9375 C-196.50582617 68.5300428 -198.19918516 69.12249185 -199.89257812 69.71484375 C-202.38275254 70.58605796 -204.87292312 71.45728308 -207.36306763 72.32858276 C-209.0340288 72.91320901 -210.70501923 73.49775161 -212.3760376 74.08221436 C-214.19181774 74.71732138 -216.00752764 75.35262923 -217.82318115 75.98809814 C-223.62127548 78.01624812 -229.42267059 80.03447595 -235.22860718 82.04006958 C-237.05985302 82.67436024 -238.88997828 83.31189647 -240.71890259 83.95285034 C-243.2264349 84.831183 -245.73759991 85.69820814 -248.25 86.5625 C-248.99460983 86.82619888 -249.73921967 87.08989777 -250.50639343 87.36158752 C-255.65769863 89.11410046 -255.65769863 89.11410046 -259 88 C-260.63818359 85.38305664 -260.63818359 85.38305664 -262.3984375 81.91015625 C-262.71527496 81.29160263 -263.03211243 80.67304901 -263.35855103 80.03575134 C-264.37330576 78.0492315 -265.37422921 76.05609514 -266.375 74.0625 C-267.04077499 72.75410318 -267.70743256 71.44615506 -268.375 70.13867188 C-271.95508231 63.11175155 -275.47534408 56.05482975 -279 49 C-233.82459093 40.57552915 -188.56977508 32.58999952 -143.32513273 24.54801929 C-132.4569053 22.61617649 -121.58901472 20.68244181 -110.72112763 18.74868548 C-101.27378611 17.06776527 -91.82635125 15.38736976 -82.37890625 13.70703125 C-81.39659444 13.5323086 -80.41428263 13.35758595 -79.4022038 13.17756867 C-76.50687697 12.66259431 -73.61154174 12.14766727 -70.71620178 11.63276672 C-69.78292567 11.46678594 -68.84964955 11.30080516 -67.88809234 11.12979466 C-63.35682695 10.32407609 -58.82543337 9.51909114 -54.29375553 8.71569538 C-52.56164946 8.40858758 -50.82954514 8.10146992 -49.09744263 7.79434204 C-48.25622225 7.64519614 -47.41500186 7.49605023 -46.54828995 7.34238476 C-41.49771478 6.44603712 -36.44846488 5.54260965 -31.40020019 4.63334137 C-28.21474283 4.06005042 -25.02871998 3.48994482 -21.84260356 2.92032945 C-20.36833987 2.65589105 -18.89434772 2.3899335 -17.42065537 2.12232935 C-15.41472058 1.75817475 -13.40775391 1.39971789 -11.40074158 1.04154968 C-9.71754019 0.73807885 -9.71754019 0.73807885 -8.00033474 0.42847729 C-5.27918962 0.03987102 -2.742746 -0.0850229 0 0 Z " fill="#FDCC08" transform="translate(971,289)"/>
<path d="M0 0 C0.28082716 7.41528034 0.49261867 14.82937579 0.62174606 22.24893951 C0.6837992 25.69638229 0.76758068 29.14013256 0.90527344 32.58544922 C1.96278768 59.7638149 1.96278768 59.7638149 -7.33882141 70.25930786 C-8.40240252 71.37650653 -9.48191812 72.47884094 -10.57977295 73.56237793 C-12.4247166 75.42991856 -13.88039165 77.47140905 -15.33984375 79.6484375 C-15.77554688 80.27105469 -16.21125 80.89367187 -16.66015625 81.53515625 C-17.08167969 82.14230469 -17.50320313 82.74945312 -17.9375 83.375 C-22.07636944 89.28609811 -26.264228 95.15794669 -30.5 101 C-34.7070509 106.80554285 -38.87519519 112.63574579 -43 118.5 C-44.47411444 120.5902617 -45.94913621 122.6798781 -47.42480469 124.76904297 C-48.53596598 126.34278629 -49.6458743 127.91741466 -50.75488281 129.49267578 C-52.53815938 132.02082285 -54.33054093 134.54228192 -56.125 137.0625 C-56.681875 137.85527344 -57.23875 138.64804687 -57.8125 139.46484375 C-58.33070313 140.18929687 -58.84890625 140.91375 -59.3828125 141.66015625 C-60.06947998 142.62900757 -60.06947998 142.62900757 -60.77001953 143.61743164 C-61.17591309 144.0736792 -61.58180664 144.52992676 -62 145 C-62.66 145 -63.32 145 -64 145 C-64 100.12 -64 55.24 -64 9 C-53.44 8.01 -42.88 7.02 -32 6 C-17.30109156 3.58471213 -17.30109156 3.58471213 -2.73925781 0.43212891 C-1 0 -1 0 0 0 Z " fill="#E81C23" transform="translate(541,784)"/>
<path d="M0 0 C1.07226837 0.19535339 1.07226837 0.19535339 2.16619873 0.39465332 C9.85562641 1.79437488 17.5475759 3.17338207 25.25 4.5 C26.43851562 4.71269531 27.62703125 4.92539062 28.8515625 5.14453125 C40.61607321 7.15461012 51.96382967 7.95337649 64 9 C64 53.88 64 98.76 64 145 C63.34 145 62.68 145 62 145 C60.14456392 142.57719916 58.40465698 140.14378893 56.6875 137.625 C55.59865722 136.05399327 54.50877955 134.4837034 53.41796875 132.9140625 C52.57177979 131.69251465 52.57177979 131.69251465 51.70849609 130.44628906 C49.01972743 126.59640881 46.26028136 122.798766 43.5 119 C38.78865918 112.5001011 34.13701416 105.96134732 29.51953125 99.39453125 C25.41774777 93.57021403 21.25703802 87.78998823 17.06640625 82.02929688 C16.0290194 80.59979431 15.01294166 79.15470683 14.01269531 77.69897461 C12.40194235 75.53899475 10.77920054 73.66916629 8.94824219 71.70922852 C-2.20397711 59.03241274 -1.48666993 46.17666859 -0.82397461 29.94610596 C-0.6992942 26.56070359 -0.64601358 23.17416485 -0.5859375 19.78710938 C-0.4548864 13.18853239 -0.25510491 6.59488601 0 0 Z " fill="#E41C23" transform="translate(394,784)"/>
<path d="M0 0 C0.99 0.495 0.99 0.495 2 1 C-4.61332826 7.17474803 -11.30031876 13.14295006 -18.3515625 18.8203125 C-20.97275119 20.97757399 -23.49154281 23.21311 -26 25.5 C-29.39598682 28.59555196 -32.86171531 31.55151207 -36.4375 34.4375 C-41.211403 38.29825137 -45.73388428 42.37437075 -50.25 46.53125 C-53.81184229 49.72881296 -57.52565833 52.71388343 -61.25 55.71875 C-64.08099578 58.06718968 -66.79383598 60.50909902 -69.5 63 C-73.94727112 67.09351091 -78.54717463 70.92442499 -83.25 74.71875 C-86.08099578 77.06718968 -88.79383598 79.50909902 -91.5 82 C-95.94727112 86.09351091 -100.54717463 89.92442499 -105.25 93.71875 C-108.08099578 96.06718968 -110.79383598 98.50909902 -113.5 101 C-117.94727112 105.09351091 -122.54717463 108.92442499 -127.25 112.71875 C-130.08099578 115.06718968 -132.79383598 117.50909902 -135.5 120 C-139.9698512 124.11378909 -144.59044893 127.97087297 -149.31640625 131.78515625 C-151.94708557 133.95632827 -154.47942424 136.20241357 -157 138.5 C-161.26715112 142.38964644 -165.6916969 146.03143415 -170.1875 149.65234375 C-174.14141038 152.95276061 -177.86476367 156.47623985 -181.58984375 160.03125 C-185.2102093 162.98856643 -185.2102093 162.98856643 -188 163 C-189.75390625 161.6640625 -189.75390625 161.6640625 -191.5625 159.625 C-194.57233171 156.42152103 -197.63273514 153.56345724 -201.0625 150.8125 C-205.83453909 146.967984 -210.53337061 143.04916181 -215.1875 139.0625 C-215.85982666 138.49442627 -216.53215332 137.92635254 -217.22485352 137.34106445 C-218.85535801 135.937895 -220.43310096 134.4738578 -222 133 C-222 132.34 -222 131.68 -222 131 C-221.29093506 130.59273682 -220.58187012 130.18547363 -219.85131836 129.76586914 C-203.12652461 120.17912004 -203.12652461 120.17912004 -186.546875 110.3449707 C-181.19829294 107.11054433 -175.82027359 103.92716296 -170.4375 100.75 C-169.03516113 99.92218018 -169.03516113 99.92218018 -167.60449219 99.07763672 C-165.69067081 97.94810941 -163.77677039 96.81871601 -161.86279297 95.68945312 C-157.2406289 92.96172198 -152.62038912 90.23073618 -148 87.5 C-146.16667639 86.41665021 -144.33334305 85.33331689 -142.5 84.25 C-141.5925 83.71375 -140.685 83.1775 -139.75 82.625 C-43.5 25.75 -43.5 25.75 -40.74584961 24.12255859 C-38.92633793 23.04738525 -37.10683907 21.9721902 -35.28735352 20.89697266 C-30.49265787 18.06360653 -25.69769071 15.2307012 -20.90234375 12.3984375 C-19.90396484 11.80869141 -18.90558594 11.21894531 -17.87695312 10.61132812 C-15.965577 9.48228269 -14.05412291 8.35336923 -12.14257812 7.22460938 C-11.27955078 6.71478516 -10.41652344 6.20496094 -9.52734375 5.6796875 C-8.73054199 5.21143555 -7.93374023 4.74318359 -7.11279297 4.26074219 C-5.38866978 3.23192636 -3.69185274 2.15746448 -2.00390625 1.0703125 C-1.01197266 0.54050781 -1.01197266 0.54050781 0 0 Z " fill="#FDCC08" transform="translate(855,141)"/>
<path d="M0 0 C7.03468302 3.29388687 13.67084938 7.13212446 20.3046875 11.16015625 C26.19671076 14.7358697 32.13141128 18.23962907 38.0625 21.75 C39.2423645 22.44870642 40.42221471 23.14743698 41.60205078 23.84619141 C52.39684262 30.23844888 63.19761894 36.62057835 74 43 C86.41651655 50.33266064 98.82795802 57.67377986 111.23236084 65.0269165 C122.48194095 71.69529156 133.7395233 78.35004677 145 85 C156.26185575 91.65076763 167.52081067 98.30634776 178.77175903 104.97555542 C187.92916402 110.40376484 197.08724217 115.83082983 206.25 121.25 C207.13623047 121.77464844 208.02246094 122.29929687 208.93554688 122.83984375 C213.60240349 125.59868374 218.28513241 128.32399407 223 131 C221.46548794 135.24189957 218.30865704 137.2984336 214.8125 139.875 C205.58459589 146.88125917 197.16557015 154.7902092 189 163 C184.30322249 161.55283792 181.32231415 158.78937241 177.875 155.4375 C172.97755574 150.79027998 167.94695564 146.44001945 162.6796875 142.2109375 C159.86746685 139.8906505 157.18202737 137.46928866 154.5 135 C150.0301488 130.88621091 145.40955107 127.02912703 140.68359375 123.21484375 C137.19449084 120.33519113 133.87003079 117.29306124 130.52734375 114.24609375 C127.93037607 111.93812402 125.26595987 109.74444137 122.5625 107.5625 C117.788597 103.70174863 113.26611572 99.62562925 108.75 95.46875 C106.06262366 93.05621896 103.31034556 90.7674379 100.5 88.5 C95.74404581 84.66280969 91.24495199 80.60614899 86.75 76.46875 C84.06262366 74.05621896 81.31034556 71.7674379 78.5 69.5 C73.74404581 65.66280969 69.24495199 61.60614899 64.75 57.46875 C62.06262366 55.05621896 59.31034556 52.7674379 56.5 50.5 C52.71539666 47.44651321 49.07792463 44.29331699 45.5 41 C41.0301488 36.88621091 36.40955107 33.02912703 31.68359375 29.21484375 C29.05291443 27.04367173 26.52057576 24.79758643 24 22.5 C19.66694368 18.55210424 15.17805688 14.83950282 10.62890625 11.14453125 C8.17032901 9.13894595 5.72780224 7.11997969 3.3125 5.0625 C2.66925781 4.51722656 2.02601562 3.97195312 1.36328125 3.41015625 C0 2 0 2 0 0 Z " fill="#FDCC08" transform="translate(85,138)"/>
<path d="M0 0 C4.00039894 3.74992673 7.03014446 7.69531019 10.0625 12.25 C11.03421158 13.68553573 12.00690064 15.1204102 12.98046875 16.5546875 C13.72756104 17.65828613 13.72756104 17.65828613 14.48974609 18.78417969 C16.91398219 22.34098002 19.39056066 25.86008764 21.875 29.375 C22.3714502 30.07802246 22.86790039 30.78104492 23.37939453 31.50537109 C27.02692428 36.65681981 30.72775895 41.76826438 34.4375 46.875 C38.94080461 53.07546563 43.32108026 59.34713188 47.625 65.6875 C51.88661736 71.96527788 56.24925147 78.14095555 60.77050781 84.23388672 C65.18578972 90.20292887 69.42353964 96.29140872 73.66552734 102.38427734 C77.57304129 107.98728385 81.5428874 113.53948899 85.5625 119.0625 C90.02596463 125.19942511 94.3632312 131.40892255 98.625 137.6875 C102.88153946 143.95783168 107.2371651 150.12769195 111.75512695 156.21191406 C116.31286533 162.37043925 120.68813431 168.65377893 125.05444336 174.94897461 C128.23439279 179.52317765 131.48380888 184.00686133 134.92260742 188.39086914 C136 190 136 190 136 192 C135.37770508 192.1952124 134.75541016 192.3904248 134.11425781 192.59155273 C121.83368672 196.47739582 109.89049788 200.55481067 98.33496094 206.29272461 C97.57086914 206.66147705 96.80677734 207.03022949 96.01953125 207.41015625 C95.36057861 207.74152588 94.70162598 208.07289551 94.02270508 208.41430664 C91.11114602 209.25737606 89.80287815 209.24126283 87 208 C85.44316693 205.2910636 84.2956453 202.84241717 83.1640625 199.95703125 C82.81234482 199.10736282 82.46062714 198.2576944 82.09825134 197.38227844 C80.92284173 194.53259305 79.77462179 191.67267511 78.625 188.8125 C77.79383068 186.78732569 76.96036662 184.76309185 76.12475586 182.73974609 C74.79803445 179.52590409 73.47306437 176.31142851 72.15507507 173.09399414 C67.55138032 161.85721788 62.79116926 150.68901366 58.01586914 139.52432251 C55.57718954 133.82043199 53.14662542 128.11308385 50.71484375 122.40625 C49.75116437 120.14582266 48.78746015 117.8854059 47.82373047 115.625 C43.41963168 105.29359164 39.02204714 94.95941108 34.625 84.625 C34.01309311 83.18685944 34.01309311 83.18685944 33.38882446 81.71966553 C30.9860956 76.07247186 28.5836832 70.42514365 26.18151855 64.77770996 C25.38995808 62.91677818 24.59837255 61.05585706 23.8067627 59.19494629 C21.48225535 53.73048614 19.15815479 48.26585332 16.83465576 42.80096436 C16.13070224 41.14536044 15.42664737 39.48979961 14.72247314 37.83428955 C13.1229205 34.07356706 11.52519122 30.31209806 9.93164062 26.54882812 C8.54549945 23.27710347 7.14540545 20.01164111 5.74023438 16.74804688 C4.99861465 15.01435853 4.25707611 13.28063546 3.515625 11.546875 C3.1639325 10.7361554 2.81223999 9.92543579 2.44989014 9.09014893 C2.12901428 8.33691345 1.80813843 7.58367798 1.47753906 6.80761719 C1.19170959 6.14348816 0.90588013 5.47935913 0.61138916 4.79510498 C0 3 0 3 0 0 Z " fill="#FDCC08" transform="translate(258,37)"/>
<path d="M0 0 C0.99 0.495 0.99 0.495 2 1 C1.63463135 1.85078125 1.2692627 2.7015625 0.89282227 3.578125 C-12.94447532 35.80872058 -26.66849863 68.08639901 -40.2975769 100.40557861 C-48.07291319 118.83982492 -55.8966713 137.25339811 -63.76147461 155.6496582 C-68.03600083 165.653246 -72.29288387 175.66122269 -76.4296875 185.72265625 C-77.38799956 188.03895415 -78.34716592 190.35489665 -79.30648804 192.67077637 C-80.16251328 194.75175775 -81.00206572 196.83886736 -81.84106445 198.92675781 C-82.34081787 200.13299805 -82.84057129 201.33923828 -83.35546875 202.58203125 C-83.77465576 203.61561768 -84.19384277 204.6492041 -84.62573242 205.71411133 C-86 208 -86 208 -87.95458984 208.92431641 C-91.48671545 209.05501096 -94.37401716 207.14234687 -97.4375 205.5625 C-104.22831124 202.20640606 -111.09752032 199.29143942 -118.1875 196.625 C-119.07171631 196.29185791 -119.95593262 195.95871582 -120.86694336 195.61547852 C-125.21868864 193.99247618 -129.58084964 192.43206509 -134 191 C-132.37080506 185.89116649 -129.27903083 182.00298992 -126.125 177.75 C-124.94060296 176.13209816 -123.75702768 174.51359448 -122.57421875 172.89453125 C-121.97528809 172.07678223 -121.37635742 171.2590332 -120.75927734 170.41650391 C-118.11422351 166.78331727 -115.52244085 163.11359324 -112.9375 159.4375 C-112.20200928 158.39287598 -112.20200928 158.39287598 -111.45166016 157.32714844 C-110.46209219 155.92127946 -109.47283329 154.51519288 -108.48388672 153.10888672 C-105.49392482 148.85957924 -102.49485255 144.61669567 -99.49755859 140.37255859 C-97.00714626 136.84548681 -94.5188188 133.316985 -92.03515625 129.78515625 C-86.92768011 122.52765027 -81.77964151 115.30413676 -76.5625 108.125 C-72.05907629 101.92462426 -67.67891669 95.65286363 -63.375 89.3125 C-59.11394577 83.03555166 -54.75108974 76.86133434 -50.23168945 70.76831055 C-44.56602738 63.10636156 -39.15683847 55.26397575 -33.70800781 47.44726562 C-26.40933378 36.98958859 -19.01331517 26.60521828 -11.53222656 16.27734375 C-7.63227491 10.88953546 -3.78103146 5.47218371 0 0 Z " fill="#FDCC08" transform="translate(680,40)"/>
<path d="M0 0 C0.33 0 0.66 0 1 0 C6.5429697 43.66346739 11.78314112 87.36109325 16.96644652 131.06846189 C17.84183843 138.4481303 18.72031616 145.82742917 19.59941572 153.20665669 C20.45899101 160.42287453 21.31676484 167.63930491 22.1730662 174.85591197 C22.6794254 179.12319368 23.18644984 183.39039349 23.6952343 187.65738678 C24.16771871 191.62060155 24.63795545 195.5840765 25.10642624 199.54776764 C25.27815744 200.9975337 25.45068829 202.44720529 25.62407494 203.89677429 C25.86014393 205.87145679 26.09305084 207.84651656 26.32579041 209.82159424 C26.45681121 210.92506824 26.58783201 212.02854225 26.72282314 213.16545486 C27 216 27 216 27 220 C9.51 219.67 -7.98 219.34 -26 219 C-23.68645909 194.70782049 -23.68645909 194.70782049 -22.30265808 183.04554749 C-22.20126715 182.18863878 -22.09987621 181.33173008 -21.99541283 180.44885445 C-21.83804114 179.11944737 -21.83804114 179.11944737 -21.67749023 177.76318359 C-21.4520302 175.84381802 -21.22676572 173.92442947 -21.00167847 172.00502014 C-20.39857717 166.86753569 -19.792558 161.73039969 -19.18577456 156.59334898 C-18.67780458 152.29058733 -18.17128116 147.98765587 -17.66473538 143.68472636 C-16.47109027 133.54542434 -15.275027 123.40640965 -14.07739258 113.26757812 C-12.84248795 102.81287035 -11.61167013 92.35768703 -10.38281292 81.90226686 C-9.32434794 72.89777725 -8.26342673 63.8935794 -7.20050579 54.8896147 C-6.56696808 49.5227487 -5.93436007 44.15577729 -5.30410576 38.78852463 C-4.71349551 33.75982586 -4.11982525 28.73149783 -3.52375412 23.70344353 C-3.30536263 21.85682665 -3.0880647 20.01008008 -2.87192345 18.16319847 C-2.57754039 15.64924316 -2.27926301 13.13578021 -1.97996521 10.62240601 C-1.89475048 9.88673413 -1.80953575 9.15106225 -1.72173876 8.39309728 C-1.3675045 5.44850342 -0.94126903 2.82380708 0 0 Z " fill="#FDCC08" transform="translate(470,0)"/>
<path d="M0 0 C11.22616968 0.53758192 22.16481794 2.66448474 33.19946289 4.66186523 C35.33105576 5.04347654 37.46273651 5.42459726 39.59449768 5.80526733 C45.35557416 6.83545426 51.11540157 7.87247413 56.87502217 8.91076541 C62.91763049 9.99886187 68.96137091 11.08063359 75.00498962 12.1631012 C86.44935675 14.21388162 97.89269477 16.27034624 109.33567375 18.32885653 C122.32283139 20.66485886 135.31114822 22.99438355 148.29955685 25.3234185 C168.51042424 28.94772854 188.72065512 32.5755698 208.92993164 36.20874023 C209.93724586 36.38980001 210.94456009 36.57085979 211.98239899 36.75740623 C231.86132846 40.33077248 231.86132846 40.33077248 241 42 C239.57769108 46.96667233 237.41483103 50.86810628 234.6875 55.1875 C230.39323301 62.15275971 226.5968433 69.20947011 224 77 C216.28343243 74.99090103 208.73164854 72.65584105 201.1875 70.078125 C200.07792938 69.70174896 198.96835876 69.32537292 197.82516479 68.93759155 C194.21557945 67.71188337 190.60774051 66.48112665 187 65.25 C185.73770359 64.82038043 184.47535367 64.39091805 183.21295166 63.96160889 C166.56713754 58.3006299 149.94818653 52.56618237 133.35888672 46.74157715 C115.94806292 40.63212141 98.47082814 34.7226241 80.98879623 28.82106018 C61.26465371 22.16226423 41.57058456 15.42501318 21.92773438 8.52929688 C21.10856033 8.24176544 20.28938629 7.95423401 19.44538879 7.6579895 C17.96093572 7.13647697 16.47676063 6.61417194 14.9929657 6.09078979 C10.01336097 4.33859803 5.01215224 2.65668235 0 1 C0 0.67 0 0.34 0 0 Z " fill="#FDCC08" transform="translate(0,295)"/>
<path d="M0 0 C-0.69746338 0.38631592 -1.39492676 0.77263184 -2.11352539 1.1706543 C-15.24649583 8.44788646 -28.36509749 15.7474529 -41.42749023 23.15087891 C-48.47953593 27.14628582 -55.54941925 31.10894482 -62.625 35.0625 C-70.35268941 39.38322427 -78.06436034 43.72989915 -85.75 48.125 C-87.00792358 48.84187988 -87.00792358 48.84187988 -88.29125977 49.57324219 C-92.82667458 52.16290941 -97.33896245 54.786687 -101.83203125 57.44921875 C-103.2701416 58.29299072 -103.2701416 58.29299072 -104.73730469 59.15380859 C-106.58122059 60.23638417 -108.41943529 61.3287467 -110.25097656 62.43212891 C-111.07694336 62.91472168 -111.90291016 63.39731445 -112.75390625 63.89453125 C-113.84167358 64.54192261 -113.84167358 64.54192261 -114.95141602 65.20239258 C-117 66 -117 66 -119.10644531 65.84985352 C-121.48785246 64.78104507 -122.19650842 63.72873802 -123.54296875 61.5078125 C-123.97673828 60.80269531 -124.41050781 60.09757812 -124.85742188 59.37109375 C-125.29634766 58.62988281 -125.73527344 57.88867188 -126.1875 57.125 C-126.86329102 56.02478516 -126.86329102 56.02478516 -127.55273438 54.90234375 C-129.35684681 51.93245551 -130.89646891 49.31059327 -132 46 C-114.84647473 39.51199431 -97.62868676 33.21608552 -80.375 27 C-75.28571197 25.16612432 -70.19692325 23.33088451 -65.109375 21.4921875 C-64.47572147 21.26319637 -63.84206795 21.03420525 -63.1892128 20.79827499 C-54.15136035 17.52960162 -45.13761566 14.20004789 -36.140625 10.8203125 C-35.06684601 10.41810486 -33.99306702 10.01589722 -32.88674927 9.60150146 C-27.84047504 7.71091604 -22.79850814 5.81018333 -17.76318359 3.890625 C-15.98032151 3.22087938 -14.19729137 2.5515809 -12.4140625 1.8828125 C-11.6126886 1.57248077 -10.8113147 1.26214905 -9.98565674 0.94241333 C-6.20149008 -0.46417773 -3.85829909 -1.24501068 0 0 Z " fill="#FDCC08" transform="translate(809,268)"/>
<path d="M0 0 C0.66 0 1.32 0 2 0 C0.40405504 5.2408773 -2.93751929 8.99026936 -6.3125 13.1875 C-11.14856056 19.29754977 -15.85301845 25.46641871 -20.375 31.8125 C-25.12861644 38.47165781 -30.01916933 45.00910891 -35 51.5 C-39.99753433 58.01410134 -44.9082978 64.57399949 -49.6875 71.25 C-54.0985748 77.38956314 -58.53384362 83.50894662 -63.0625 89.5625 C-63.86723755 90.66223145 -63.86723755 90.66223145 -64.68823242 91.78417969 C-65.19459229 92.45481445 -65.70095215 93.12544922 -66.22265625 93.81640625 C-66.88406616 94.70501343 -66.88406616 94.70501343 -67.55883789 95.61157227 C-69.37177519 97.35817135 -70.49594256 97.78782188 -73 98 C-74.87524414 97.22729492 -74.87524414 97.22729492 -76.78515625 95.98046875 C-77.82833008 95.31241211 -77.82833008 95.31241211 -78.89257812 94.63085938 C-79.60865234 94.15455078 -80.32472656 93.67824219 -81.0625 93.1875 C-81.78244141 92.72279297 -82.50238281 92.25808594 -83.24414062 91.77929688 C-86.1804599 89.87900482 -89.08984708 87.94010195 -92 86 C-92 83 -92 83 -90.671875 81.5625 C-90.03765625 81.046875 -89.4034375 80.53125 -88.75 80 C-85.12273865 76.96232883 -81.59957269 73.83528752 -78.125 70.625 C-72.78487116 65.71074014 -67.40202665 60.84619111 -62 56 C-60.33307353 54.50028872 -58.66640851 53.00028679 -57 51.5 C-50.33333333 45.5 -43.66666667 39.5 -37 33.5 C-36.17242188 32.75492188 -35.34484375 32.00984375 -34.4921875 31.2421875 C-32.85260121 29.76707382 -31.21200345 28.29308348 -29.5703125 26.8203125 C-24.46319338 22.23532697 -19.39394143 17.61191028 -14.34277344 12.96557617 C-10.78443358 9.69990108 -7.17996436 6.49494815 -3.5234375 3.33984375 C-2.30827165 2.27112096 -1.1442894 1.1442894 0 0 Z " fill="#FDCC08" transform="translate(696,170)"/>
<path d="M0 0 C6.55572523 0.57927373 12.26424139 2.7447852 18.39453125 5.05859375 C19.51494812 5.47475952 20.63536499 5.89092529 21.78973389 6.31970215 C24.83380283 7.45123506 27.87561636 8.58860143 30.91667557 9.72819138 C36.04996408 11.64877313 41.18994508 13.55145117 46.32870293 15.45733833 C48.30649794 16.19106996 50.28399546 16.92559962 52.26148987 17.66014099 C67.36776659 23.26691337 82.53423553 28.70522701 97.7043457 34.13647461 C108.50306042 38.00514096 119.27560654 41.92946255 130 46 C130 51.05682502 127.96159164 52.66334726 124.625 56.0625 C120.54304784 60.30323828 120.54304784 60.30323828 117 65 C112.94147527 64.40112575 109.9779746 63.08743096 106.4140625 61.078125 C104.78863525 60.16824829 104.78863525 60.16824829 103.13037109 59.23999023 C101.9618324 58.57680402 100.79337747 57.9134702 99.625 57.25 C98.40869696 56.56589867 97.19205814 55.882394 95.97509766 55.19946289 C92.89200071 53.46709889 89.81348139 51.7267857 86.73657227 49.98345947 C84.15425234 48.5210343 81.56920337 47.06345449 78.984375 45.60546875 C75.23756182 43.49053045 71.49319333 41.37133724 67.75 39.25 C61.63770119 35.78973166 55.50656305 32.36347859 49.375 28.9375 C40.67821986 24.07617122 32.01005348 19.1679904 23.3659668 14.21362305 C15.60201225 9.76487029 7.80694842 5.3727745 0 1 C0 0.67 0 0.34 0 0 Z " fill="#FDCC08" transform="translate(133,262)"/>
<path d="M0 0 C4.81868271 3.4168841 9.12747805 6.99033691 13.23828125 11.23046875 C15.61657977 13.61931405 18.1557548 15.79127977 20.70703125 17.9921875 C23.46905882 20.41072612 26.17397712 22.88891376 28.875 25.375 C34.2161535 30.28815766 39.59795736 35.15379455 45 40 C46.66692647 41.49971128 48.33359149 42.99971321 50 44.5 C50.825 45.2425 51.65 45.985 52.5 46.75 C60 53.5 60 53.5 62.5078125 55.7578125 C64.14739879 57.23292618 65.78799655 58.70691652 67.4296875 60.1796875 C72.04226704 64.32069341 76.62663602 68.48977119 81.1875 72.6875 C85.38494691 76.54928463 89.63438918 80.32891818 94 84 C92.62712963 88.1186111 89.87426609 89.0484721 86.25 91 C85.00497971 91.68708589 83.76018413 92.37457913 82.515625 93.0625 C81.91556641 93.38863281 81.31550781 93.71476562 80.69726562 94.05078125 C79.17988939 94.89939443 77.70351485 95.82037478 76.234375 96.75 C74 98 74 98 71 98 C69.7199707 96.6809082 69.7199707 96.6809082 68.42578125 94.80078125 C67.6843689 93.74515991 67.6843689 93.74515991 66.92797852 92.66821289 C66.12831665 91.50213501 66.12831665 91.50213501 65.3125 90.3125 C64.14322224 88.64921279 62.97123205 86.98782989 61.796875 85.328125 C61.17876953 84.45349609 60.56066406 83.57886719 59.92382812 82.67773438 C56.73109456 78.23383822 53.39692155 73.90051666 50.0625 69.5625 C44.29466397 62.03827467 38.61543746 54.45717207 33.00805664 46.81274414 C29.36854355 41.85222644 25.69953686 36.9158904 22 32 C20.5347918 30.04787961 19.07040261 28.09514849 17.60644531 26.14208984 C16.45579791 24.60777672 15.30396936 23.07434911 14.15136719 21.54150391 C12.22020932 18.96938045 10.29693309 16.3915211 8.375 13.8125 C7.46814453 12.60883789 7.46814453 12.60883789 6.54296875 11.38085938 C5.97964844 10.62224609 5.41632813 9.86363281 4.8359375 9.08203125 C4.33626465 8.41405518 3.8365918 7.7460791 3.32177734 7.05786133 C1.86648735 4.79213555 0.92486935 2.52349367 0 0 Z " fill="#FDCC08" transform="translate(245,165)"/>
<path d="M0 0 C0.96372393 3.10912312 0.98970259 5.4103733 0.51283264 8.61907959 C0.31295494 10.00304176 0.31295494 10.00304176 0.10903931 11.41496277 C-0.12077133 12.92223686 -0.12077133 12.92223686 -0.35522461 14.45996094 C-0.58909126 16.05554588 -0.58909126 16.05554588 -0.8276825 17.68336487 C-1.34521222 21.20149926 -1.87373203 24.71789011 -2.40234375 28.234375 C-2.76317375 30.67236493 -3.12331814 33.11045643 -3.48280334 35.54864502 C-4.4311219 41.96776817 -5.38876382 48.38546704 -6.34832764 54.80291748 C-7.32572359 61.35085275 -8.29433198 67.90008693 -9.26367188 74.44921875 C-11.16716339 87.30076796 -13.08020503 100.15087667 -15 113 C-16.57960816 112.85020468 -18.15899259 112.69804899 -19.73828125 112.54492188 C-21.05759644 112.41821106 -21.05759644 112.41821106 -22.40356445 112.28894043 C-25.99269096 111.88952988 -29.46123266 111.22515724 -33 110.5 C-34.27875 110.2421875 -35.5575 109.984375 -36.875 109.71875 C-40 109 -40 109 -42 108 C-41.25914804 102.88418775 -39.28807066 98.26361195 -37.4140625 93.48046875 C-37.04497772 92.52923126 -36.67589294 91.57799377 -36.29562378 90.59793091 C-35.07635245 87.4594403 -33.8509112 84.32340242 -32.625 81.1875 C-31.77522372 79.00616853 -30.92561662 76.82477114 -30.07617188 74.64331055 C-27.39260186 67.75887499 -24.69809388 60.87875483 -22 54 C-21.55120483 52.85567505 -21.10240967 51.7113501 -20.64001465 50.53234863 C-18.01587744 43.84464907 -15.38594964 37.15926218 -12.74871826 30.47671509 C-11.91959427 28.37573946 -11.09117854 26.27448418 -10.26348877 24.17294312 C-9.10566951 21.23522205 -7.94408278 18.29902085 -6.78125 15.36328125 C-6.44141083 14.49978058 -6.10157166 13.63627991 -5.75143433 12.74661255 C-4.01883297 8.3860841 -2.17861663 4.16319495 0 0 Z " fill="#FDCC08" transform="translate(551,114)"/>
<path d="M0 0 C2.41740284 2.41740284 3.07995281 4.4417111 4.29296875 7.640625 C4.7504248 8.83647217 5.20788086 10.03231934 5.67919922 11.2644043 C6.04606842 12.23402603 6.04606842 12.23402603 6.42034912 13.22323608 C7.75458637 16.74820618 9.10709471 20.26617549 10.45703125 23.78515625 C10.74308228 24.53219315 11.0291333 25.27923004 11.32385254 26.04890442 C14.30604257 33.82554398 17.36675846 41.5705926 20.43469238 49.3137207 C25.64898021 62.47703903 30.84371679 75.64815597 35.99420166 88.83657837 C36.61991134 90.43745183 37.24681194 92.03786035 37.87493896 93.63778687 C38.74149737 95.84581023 39.60375552 98.05546372 40.46484375 100.265625 C40.72342667 100.92204483 40.98200958 101.57846466 41.24842834 102.254776 C43 106.77140803 43 106.77140803 43 109 C39.43884042 109.67396301 35.87587859 110.33787818 32.3125 111 C30.80139648 111.28617188 30.80139648 111.28617188 29.25976562 111.578125 C28.28330078 111.75859375 27.30683594 111.9390625 26.30078125 112.125 C25.40528564 112.29257813 24.50979004 112.46015625 23.5871582 112.6328125 C21.01987068 112.99717982 18.58907987 113.06528807 16 113 C12.50726776 92.89857121 9.52527879 72.72592239 6.57128906 52.53979492 C5.88149031 47.82771538 5.1848118 43.11667927 4.48656845 38.40584469 C3.9444 34.74058074 3.40677773 31.07466053 2.87042999 27.40854073 C2.61529681 25.66965466 2.35854572 23.93100512 2.10009003 22.19260979 C1.74131136 19.77613244 1.3889274 17.35880282 1.03808594 14.94116211 C0.87919891 13.88532928 0.87919891 13.88532928 0.71710205 12.8081665 C0.10120273 8.50609148 -0.09381458 4.34320463 0 0 Z " fill="#FDCC08" transform="translate(388,112)"/>
</svg>
